<svg width="604" height="500" viewBox="0 0 604 500" fill="none" xmlns="http://www.w3.org/2000/svg">
<g opacity="0.6">
<path d="M240.593 556.037C71.7757 556.037 -65.5704 418.691 -65.5704 249.874C-65.5704 81.0575 71.7757 -56.2885 240.593 -56.2885C409.41 -56.2885 546.756 81.0575 546.756 249.874C546.756 418.691 409.419 556.037 240.593 556.037ZM217.525 -111.983H217.16C215.996 -111.975 214.823 -111.864 213.676 -111.703C211.093 -111.329 208.629 -110.471 206.607 -108.788C203.404 -106.129 200.787 -102.96 198.977 -99.1618C197.991 -97.0801 197.643 -94.9475 198.136 -92.662C199.13 -88.0739 202.707 -86.5615 206.335 -86.2131C207.737 -86.0772 209.113 -86.434 210.498 -86.5445C212.469 -86.7059 214.407 -86.519 216.242 -85.6948C219.428 -84.2589 221.357 -82.0074 221.212 -78.3284C221.127 -76.1533 220.354 -74.2755 218.884 -72.6867C217.38 -71.0554 215.486 -70.0188 213.464 -69.2201C209.385 -67.6228 205.545 -65.5921 202.087 -62.8817C202.053 -62.8562 202.027 -62.8308 201.993 -62.8053C200.124 -62.5759 198.263 -62.338 196.403 -62.0746C196.98 -63.4425 197.397 -64.8699 197.626 -66.3823C197.737 -67.0875 197.788 -67.7927 197.957 -68.4809C198.348 -70.0613 198.569 -71.6331 198.467 -73.2815C198.357 -75.0062 197.898 -76.6036 197.074 -78.1075C195.544 -80.9198 193.352 -83.1204 190.795 -85.0066C187.668 -87.3007 184.227 -87.802 180.523 -86.8249C179.97 -86.6804 179.427 -86.536 178.874 -86.3831C178.577 -87.4876 178.296 -88.5242 178.025 -89.5607C177.685 -90.8777 177.073 -92.0842 176.385 -93.2482C174.838 -95.8482 172.774 -97.9638 170.157 -99.4677C166.359 -101.651 162.289 -102.671 157.888 -102.017C156.044 -101.745 154.311 -101.209 152.824 -100.045C150.207 -97.9978 148.346 -95.3299 146.808 -92.4241C146.248 -91.362 145.78 -90.249 145.262 -89.1359C144.812 -89.4503 144.37 -89.7817 143.894 -90.079C139.518 -92.8149 134.828 -94.5057 129.594 -94.2508C128.116 -94.1743 126.612 -94.0214 125.176 -93.69C123.732 -93.3587 122.304 -92.8574 120.937 -92.2796C118.532 -91.2515 116.382 -89.7817 114.862 -87.6405C112.457 -84.2334 110.741 -80.5035 109.985 -76.3572C109.568 -74.0886 109.789 -71.939 110.86 -69.8659C113.001 -65.6941 116.858 -65.1588 120.452 -65.762C121.837 -65.9915 123.078 -66.6882 124.386 -67.1555C126.247 -67.8267 128.167 -68.1411 130.155 -67.8182C133.605 -67.2574 136.052 -65.5836 136.867 -61.9896C137.352 -59.874 137.088 -57.8603 136.077 -55.9401C135.049 -53.9774 133.486 -52.482 131.736 -51.1821C128.252 -48.6161 125.108 -45.7018 122.491 -42.2522C120.971 -41.6405 119.458 -41.0202 117.946 -40.3745C117.674 -40.2641 117.402 -40.1451 117.13 -40.0262C117.317 -41.4451 117.343 -42.8895 117.181 -44.3594C117.105 -45.0646 116.969 -45.7698 116.952 -46.475C116.926 -48.1063 116.731 -49.6867 116.204 -51.2415C115.652 -52.8814 114.794 -54.3003 113.604 -55.5408C111.395 -57.8518 108.71 -59.4237 105.753 -60.5707C102.142 -61.9811 98.6842 -61.5818 95.362 -59.6701C94.8692 -59.3897 94.3849 -59.1093 93.8836 -58.8119C93.3143 -59.806 92.7706 -60.7321 92.2438 -61.6582C91.5726 -62.8477 90.6719 -63.8503 89.7033 -64.7934C87.5367 -66.9091 84.9963 -68.413 82.082 -69.1861C77.8507 -70.3077 73.6534 -70.2397 69.5751 -68.4724C67.8673 -67.7332 66.3294 -66.7646 65.1994 -65.2523C63.2027 -62.5929 62.0897 -59.5341 61.359 -56.3309C61.0956 -55.1584 60.9341 -53.9689 60.7217 -52.7624C60.2034 -52.9493 59.6937 -53.1532 59.1584 -53.3147C54.2219 -54.8271 49.2599 -55.2434 44.264 -53.6375C42.8536 -53.1872 41.4431 -52.6435 40.1432 -51.9552C38.8347 -51.267 37.5857 -50.4174 36.4132 -49.4913C34.3571 -47.8769 32.6578 -45.8972 31.7486 -43.4333C30.3042 -39.5249 29.6245 -35.472 29.9644 -31.2748C30.1513 -28.9807 30.916 -26.967 32.4878 -25.2337C35.64 -21.7587 39.4975 -22.243 42.8111 -23.7469C44.0856 -24.3246 45.1051 -25.3187 46.2522 -26.1174C47.875 -27.2474 49.6508 -28.0546 51.656 -28.2585C55.131 -28.6154 57.9264 -27.6213 59.6427 -24.3671C60.6623 -22.4384 60.9257 -20.4332 60.4499 -18.3176C59.9655 -16.151 58.844 -14.2988 57.4846 -12.5994C54.7997 -9.23484 52.5311 -5.63232 50.8998 -1.64746C49.3449 -0.466446 47.79 0.714569 46.2522 1.92107C46.0652 0.51915 45.7169 -0.865784 45.1901 -2.23372C44.9352 -2.89645 44.6208 -3.53369 44.4254 -4.21341C43.9751 -5.77676 43.3804 -7.25516 42.4627 -8.63159C41.5026 -10.076 40.3046 -11.223 38.8432 -12.1152C36.1158 -13.7805 33.1081 -14.5961 29.9644 -14.953C26.1069 -15.3778 22.8783 -14.0948 20.1594 -11.393C19.7601 -11.0021 19.3607 -10.5943 18.9529 -10.1864C18.1457 -10.9936 17.381 -11.7498 16.6248 -12.5145C15.6647 -13.4831 14.5347 -14.2138 13.3622 -14.885C10.7283 -16.3634 7.88193 -17.1621 4.85717 -17.1536C0.472969 -17.1451 -3.55438 -15.9896 -7.03795 -13.2197C-8.49085 -12.0642 -9.73135 -10.7302 -10.4366 -8.97994C-11.677 -5.89571 -11.9574 -2.65855 -11.83 0.629601C-11.7875 1.82761 -11.6346 3.01711 -11.5241 4.24061C-12.0679 4.19813 -12.6202 4.13017 -13.1724 4.10468C-18.3298 3.91776 -23.2408 4.80138 -27.642 7.64771C-28.891 8.44639 -30.106 9.33852 -31.1935 10.3411C-32.2811 11.3522 -33.2667 12.4992 -34.1588 13.6887C-35.7307 15.7789 -36.8522 18.1324 -37.0986 20.7493C-37.4809 24.8956 -37.0901 28.9909 -35.6797 32.9503C-34.9065 35.1254 -33.6405 36.8672 -31.6778 38.1416C-27.7355 40.6821 -24.1329 39.2207 -21.3206 36.9012C-20.233 36.009 -19.5108 34.7855 -18.6102 33.7235C-17.3357 32.2111 -15.8318 30.9791 -13.9456 30.2654C-10.683 29.0249 -7.71767 29.2543 -5.2197 31.9562C-3.7413 33.5535 -2.95962 35.4313 -2.87465 37.5894C-2.78969 39.807 -3.39294 41.8886 -4.25959 43.8768C-5.96738 47.7937 -7.22487 51.838 -7.77715 56.0778C-8.99214 57.6326 -10.1901 59.196 -11.3712 60.7678C-11.9149 59.4764 -12.6032 58.2444 -13.4528 57.0803C-13.8691 56.5111 -14.3364 55.9673 -14.7018 55.3641C-15.543 53.9706 -16.5031 52.6877 -17.7351 51.6086C-19.035 50.4616 -20.4879 49.6714 -22.1363 49.1871C-25.2035 48.2865 -28.3132 48.2695 -31.4484 48.7453C-35.2888 49.3315 -38.0672 51.4047 -39.9959 54.7183C-40.2763 55.2111 -40.5652 55.6954 -40.8541 56.1967C-41.8482 55.6274 -42.7743 55.0922 -43.7004 54.5484C-44.8729 53.8602 -46.1559 53.4438 -47.4643 53.104C-50.3956 52.3563 -53.3524 52.3223 -56.2667 53.1125C-60.498 54.2595 -64.092 56.4091 -66.7429 59.9861C-67.8475 61.4815 -68.6971 63.0959 -68.9265 64.9651C-69.3259 68.2702 -68.7566 71.4649 -67.788 74.6086C-67.4311 75.7472 -66.9808 76.8687 -66.556 78.0157C-67.0913 78.1177 -67.6436 78.1942 -68.1873 78.3131C-73.2173 79.4686 -77.7289 81.5842 -81.2465 85.4756C-82.2406 86.5802 -83.1922 87.7442 -83.9739 88.9932C-84.764 90.2507 -85.4183 91.6101 -85.9705 92.9866C-86.9476 95.4166 -87.4234 97.9825 -86.9816 100.565C-86.2764 104.669 -84.8405 108.518 -82.453 111.985C-81.1445 113.879 -79.4707 115.247 -77.2446 115.961C-72.7755 117.397 -69.6742 115.052 -67.5586 112.087C-66.7429 110.94 -66.3606 109.572 -65.7658 108.314C-64.9247 106.53 -63.7946 104.941 -62.1548 103.769C-59.3255 101.721 -56.4027 101.177 -53.2845 103.14C-51.4407 104.295 -50.2087 105.91 -49.563 107.974C-48.9003 110.09 -48.9512 112.257 -49.2741 114.406C-49.9028 118.595 -50.0728 122.792 -49.529 126.99C-49.5715 127.091 -49.6225 127.202 -49.6649 127.304C-50.3956 129.037 -51.1094 130.77 -51.8061 132.512C-52.6557 131.425 -53.6243 130.422 -54.7374 129.53C-55.2896 129.088 -55.8844 128.689 -56.3857 128.196C-57.5582 127.066 -58.8157 126.089 -60.2856 125.35C-61.8404 124.577 -63.4463 124.186 -65.1626 124.143C-68.3573 124.067 -71.365 124.857 -74.2708 126.131C-77.8224 127.686 -79.9805 130.422 -80.9831 134.118C-81.1275 134.662 -81.272 135.214 -81.4249 135.766C-82.5295 135.469 -83.566 135.197 -84.6026 134.917C-85.9196 134.551 -87.262 134.483 -88.613 134.5C-91.6377 134.534 -94.501 135.265 -97.1095 136.786C-100.899 138.987 -103.813 141.994 -105.453 146.132C-106.133 147.865 -106.541 149.641 -106.277 151.502C-105.81 154.799 -104.433 157.738 -102.683 160.525C-102.046 161.536 -101.315 162.496 -100.61 163.499C-101.103 163.737 -101.613 163.949 -102.105 164.213C-106.668 166.634 -110.474 169.846 -112.87 174.51C-113.55 175.827 -114.162 177.204 -114.595 178.623C-115.037 180.042 -115.317 181.529 -115.496 182.998C-115.81 185.59 -115.606 188.198 -114.51 190.577C-112.769 194.358 -110.381 197.714 -107.178 200.433C-105.419 201.929 -103.456 202.812 -101.12 202.923C-96.4382 203.152 -94.0507 200.085 -92.7677 196.669C-92.275 195.352 -92.258 193.933 -92.0116 192.566C-91.6632 190.62 -90.975 188.793 -89.7005 187.23C-87.4999 184.519 -84.815 183.245 -81.2975 184.332C-79.2158 184.978 -77.61 186.21 -76.4459 188.037C-75.2649 189.906 -74.7466 192.013 -74.5002 194.171C-74.0244 198.42 -73.0898 202.54 -71.45 206.483C-71.7219 208.437 -71.9598 210.4 -72.1977 212.362C-73.3192 211.513 -74.5342 210.782 -75.8682 210.196C-76.5139 209.907 -77.1936 209.677 -77.8054 209.338C-79.2328 208.547 -80.6942 207.927 -82.3085 207.604C-84.0078 207.264 -85.6647 207.298 -87.33 207.706C-90.4397 208.462 -93.1331 210 -95.6141 211.98C-98.6473 214.41 -100.015 217.596 -100.032 221.428C-100.032 221.997 -100.032 222.558 -100.032 223.136C-101.179 223.136 -102.25 223.144 -103.32 223.136C-104.688 223.127 -106.005 223.408 -107.305 223.765C-110.22 224.58 -112.794 226.025 -114.927 228.166C-118.019 231.267 -120.059 234.929 -120.56 239.356C-120.772 241.208 -120.704 243.018 -119.965 244.76C-118.657 247.818 -116.566 250.308 -114.162 252.542C-113.287 253.358 -112.335 254.097 -111.392 254.879C-111.808 255.236 -112.25 255.576 -112.65 255.949C-116.431 259.467 -119.277 263.554 -120.381 268.686C-120.696 270.139 -120.925 271.625 -120.985 273.104C-121.044 274.582 -120.925 276.095 -120.721 277.565C-120.356 280.147 -119.489 282.611 -117.807 284.634C-115.148 287.837 -111.978 290.462 -108.172 292.263C-106.09 293.249 -103.958 293.597 -101.672 293.105C-97.084 292.111 -95.5801 288.533 -95.2232 284.905C-95.0873 283.504 -95.4357 282.127 -95.5546 280.742C-95.7245 278.771 -95.5291 276.834 -94.705 274.999C-93.2775 271.812 -91.0175 269.884 -87.3385 270.028C-85.1634 270.113 -83.2856 270.886 -81.6968 272.356C-80.0655 273.86 -79.0204 275.755 -78.2302 277.785C-76.6499 281.804 -74.6617 285.594 -72.0108 289.009C-71.7729 290.938 -71.518 292.858 -71.2376 294.787C-72.5545 294.235 -73.9395 293.844 -75.4009 293.623C-76.0976 293.512 -76.8113 293.461 -77.4995 293.292C-79.0799 292.901 -80.6602 292.68 -82.3 292.782C-84.0248 292.892 -85.6222 293.351 -87.1261 294.175C-89.9299 295.705 -92.139 297.897 -94.0167 300.454C-96.3193 303.581 -96.8121 307.022 -95.835 310.726C-95.6905 311.27 -95.5461 311.822 -95.3932 312.375C-96.4977 312.672 -97.5343 312.952 -98.5709 313.224C-99.8878 313.564 -101.094 314.176 -102.258 314.864C-104.858 316.41 -106.974 318.475 -108.478 321.092C-110.661 324.89 -111.681 328.951 -111.027 333.361C-110.755 335.205 -110.211 336.938 -109.047 338.425C-106.999 341.042 -104.332 342.903 -101.426 344.44C-100.364 345.001 -99.2506 345.469 -98.146 345.987C-98.4604 346.437 -98.7918 346.879 -99.0892 347.346C-101.834 351.722 -103.516 356.412 -103.261 361.646C-103.184 363.124 -103.032 364.628 -102.7 366.064C-102.369 367.508 -101.876 368.936 -101.29 370.304C-100.262 372.708 -98.7918 374.858 -96.6507 376.379C-93.2521 378.783 -89.5136 380.5 -85.3758 381.256C-83.1072 381.672 -80.9661 381.451 -78.8844 380.381C-74.7127 378.24 -74.1774 374.382 -74.7806 370.788C-75.01 369.403 -75.7068 368.163 -76.1826 366.854C-76.8538 364.993 -77.1682 363.073 -76.8453 361.085C-76.293 357.636 -74.6107 355.189 -71.0167 354.373C-68.8926 353.889 -66.8789 354.152 -64.9672 355.163C-63.0045 356.191 -61.5091 357.754 -60.2176 359.505C-57.6262 363.014 -54.6949 366.175 -51.2113 368.808C-50.7015 370.066 -50.1832 371.315 -49.6565 372.564C-49.4355 373.091 -49.2061 373.609 -48.9852 374.127C-50.4296 373.932 -51.8995 373.906 -53.3949 374.068C-54.1001 374.144 -54.8053 374.28 -55.5106 374.297C-57.1419 374.323 -58.7222 374.527 -60.2771 375.045C-61.9169 375.597 -63.3358 376.455 -64.5763 377.645C-66.8874 379.854 -68.4592 382.539 -69.6148 385.487C-71.0252 389.107 -70.6173 392.556 -68.7141 395.878C-68.4337 396.371 -68.1449 396.864 -67.856 397.357C-68.8501 397.926 -69.7762 398.47 -70.7023 398.997C-71.8918 399.668 -72.8944 400.568 -73.8375 401.537C-75.9532 403.704 -77.457 406.236 -78.2302 409.158C-79.3518 413.39 -79.2923 417.587 -77.5165 421.665C-76.7773 423.373 -75.8087 424.911 -74.2963 426.049C-71.6369 428.046 -68.5782 429.151 -65.375 429.89C-64.2025 430.153 -63.013 430.315 -61.8065 430.527C-61.9934 431.045 -62.1973 431.564 -62.3587 432.082C-63.8711 437.018 -64.2874 441.989 -62.6901 446.976C-62.2398 448.387 -61.696 449.789 -61.0078 451.097C-60.3196 452.414 -59.4614 453.663 -58.5438 454.827C-56.9295 456.883 -54.9498 458.582 -52.4858 459.492C-48.5774 460.936 -44.5246 461.616 -40.3273 461.276C-38.0332 461.089 -36.0111 460.324 -34.2778 458.752C-30.8027 455.6 -31.287 451.743 -32.7909 448.429C-33.3771 447.146 -34.3627 446.135 -35.1614 444.988C-36.2914 443.365 -37.0901 441.589 -37.3025 439.584C-37.6594 436.109 -36.6653 433.314 -33.4111 431.598C-31.4909 430.578 -29.4772 430.315 -27.3616 430.79C-25.2035 431.275 -23.3512 432.396 -21.6434 433.756C-18.2194 436.492 -14.5404 438.803 -10.4705 440.442C-10.3941 440.468 -10.3176 440.502 -10.2411 440.527C-9.11109 442.006 -7.97256 443.476 -6.81703 444.946C-8.32941 445.115 -9.8163 445.489 -11.2777 446.05C-11.9404 446.314 -12.5777 446.619 -13.2574 446.815C-14.8207 447.265 -16.2991 447.86 -17.6756 448.769C-19.12 449.729 -20.267 450.927 -21.1591 452.397C-22.8245 455.124 -23.6401 458.124 -23.9885 461.276C-24.4133 465.133 -23.1303 468.362 -20.4285 471.081C-20.0291 471.48 -19.6298 471.879 -19.2219 472.287C-20.0291 473.094 -20.7853 473.859 -21.55 474.607C-22.5186 475.567 -23.2578 476.688 -23.9205 477.87C-25.3989 480.503 -26.1976 483.35 -26.1891 486.375C-26.1806 490.75 -25.0336 494.786 -22.2637 498.27C-21.1082 499.722 -19.7742 500.963 -18.0239 501.66C-14.9397 502.9 -11.7025 503.181 -8.41438 503.062C-7.21637 503.011 -6.02686 502.858 -4.80336 502.756C-4.84585 503.3 -4.91382 503.852 -4.93931 504.404C-5.12624 509.561 -4.24259 514.472 -1.40476 518.882C-0.597588 520.131 0.286049 521.346 1.28864 522.425C2.29972 523.521 3.43826 524.498 4.62777 525.39C6.71791 526.962 9.07144 528.084 11.6884 528.33C15.8347 528.713 19.93 528.322 23.8894 526.911C26.0645 526.13 27.8063 524.872 29.0807 522.909C31.6212 518.967 30.1598 515.365 27.8402 512.552C26.9481 511.465 25.7246 510.742 24.6626 509.842C23.1502 508.576 21.9182 507.063 21.196 505.177C19.9555 501.915 20.1849 498.958 22.8868 496.451C24.4841 494.973 26.3618 494.191 28.52 494.106C30.7375 494.021 32.8107 494.625 34.8074 495.491C38.8262 497.242 42.9725 498.524 47.3312 499.051C47.5012 499.068 47.6711 499.094 47.841 499.111C49.2769 500.224 50.7128 501.32 52.1658 502.407C50.7043 502.968 49.3109 503.724 48.0025 504.684C47.4332 505.101 46.8894 505.568 46.2862 505.933C44.8927 506.775 43.6183 507.735 42.5307 508.967C41.3837 510.267 40.585 511.728 40.1007 513.368C39.2001 516.435 39.1831 519.545 39.6674 522.68C40.2536 526.52 42.3268 529.307 45.6404 531.236C46.1332 531.525 46.6175 531.805 47.1188 532.094C46.5496 533.08 46.0143 534.014 45.4705 534.94C44.7823 536.122 44.366 537.404 44.0261 538.704C43.2784 541.636 43.2444 544.593 44.0346 547.507C45.1816 551.73 47.3312 555.332 50.9083 557.983C52.4037 559.088 54.0095 559.937 55.8872 560.158C59.1924 560.557 62.3871 559.997 65.5308 559.02C66.6778 558.663 67.7908 558.204 68.9379 557.788C69.0313 558.331 69.1163 558.884 69.2352 559.419C70.3908 564.449 72.5149 568.961 76.3978 572.478C77.4939 573.481 78.6664 574.424 79.9239 575.214C81.1813 576.004 82.5408 576.658 83.9172 577.211C86.3387 578.188 88.9047 578.664 91.4961 578.222C95.5999 577.516 99.4574 576.089 102.915 573.693C104.81 572.376 106.178 570.711 106.892 568.485C108.328 564.016 105.974 560.923 103.017 558.799C101.87 557.983 100.502 557.601 99.2449 557.006C97.4607 556.165 95.8718 555.026 94.6908 553.395C92.6431 550.566 92.1078 547.643 94.0621 544.525C95.2176 542.681 96.8319 541.449 98.8966 540.803C101.012 540.14 103.179 540.191 105.328 540.514C109.662 541.168 113.995 541.33 118.345 540.718C118.583 540.684 118.812 540.642 119.042 540.608C120.682 541.296 122.33 541.967 123.987 542.63C122.678 543.573 121.497 544.677 120.452 545.977C120.01 546.53 119.611 547.125 119.118 547.626C117.988 548.798 117.011 550.056 116.272 551.534C115.499 553.081 115.108 554.695 115.065 556.411C114.989 559.606 115.779 562.622 117.054 565.519C118.609 569.079 121.336 571.229 125.04 572.232C125.584 572.376 126.136 572.529 126.689 572.673C126.391 573.778 126.119 574.815 125.839 575.851C125.474 577.168 125.406 578.511 125.423 579.862C125.457 582.886 126.187 585.75 127.708 588.367C129.909 592.156 132.917 595.07 137.054 596.702C138.788 597.39 140.563 597.789 142.424 597.526C145.721 597.058 148.661 595.682 151.448 593.932C152.459 593.294 153.419 592.564 154.421 591.867C154.651 592.36 154.872 592.87 155.135 593.362C157.556 597.917 160.768 601.732 165.433 604.128C166.75 604.807 168.126 605.419 169.545 605.852C170.964 606.286 172.442 606.566 173.921 606.744C176.512 607.059 179.121 606.855 181.5 605.759C185.281 604.017 188.637 601.63 191.356 598.426C192.851 596.668 193.735 594.705 193.845 592.368C194.074 587.678 191.007 585.299 187.592 584.016C186.275 583.523 184.856 583.507 183.488 583.26C181.542 582.912 179.715 582.224 178.161 580.958C175.45 578.748 174.176 576.072 175.263 572.555C175.9 570.481 177.141 568.867 178.968 567.703C180.837 566.522 182.944 566.004 185.102 565.757C189.461 565.273 193.692 564.304 197.728 562.588C198.042 562.452 198.365 562.316 198.68 562.172C200.387 562.401 202.104 562.614 203.82 562.809C202.732 564.1 201.832 565.536 201.135 567.125C200.846 567.771 200.617 568.451 200.277 569.062C199.487 570.49 198.867 571.96 198.544 573.574C198.204 575.273 198.238 576.93 198.646 578.596C199.402 581.705 200.94 584.407 202.919 586.88C205.341 589.913 208.536 591.289 212.367 591.298C212.937 591.306 213.498 591.298 214.075 591.298C214.075 592.445 214.084 593.515 214.075 594.586C214.067 595.945 214.347 597.271 214.704 598.571C215.52 601.485 216.964 604.06 219.114 606.192C222.215 609.285 225.877 611.324 230.304 611.825C232.156 612.038 233.974 611.97 235.707 611.222C238.766 609.922 241.256 607.832 243.49 605.419C244.306 604.535 245.045 603.592 245.827 602.649C246.184 603.065 246.523 603.507 246.897 603.907C250.415 607.688 254.502 610.534 259.634 611.638C261.087 611.944 262.573 612.182 264.052 612.242C265.53 612.293 267.043 612.182 268.512 611.97C271.104 611.604 273.559 610.738 275.582 609.055C278.785 606.396 281.41 603.218 283.211 599.429C284.197 597.347 284.545 595.215 284.044 592.929C283.05 588.341 279.473 586.837 275.845 586.48C274.443 586.344 273.075 586.701 271.682 586.812C269.71 586.982 267.773 586.786 265.938 585.962C262.752 584.535 260.823 582.275 260.959 578.596C261.044 576.42 261.817 574.543 263.287 572.945C264.791 571.314 266.686 570.277 268.716 569.479C272.795 567.873 276.635 565.851 280.093 563.14C280.425 562.877 280.747 562.605 281.079 562.342C282.753 562.129 284.426 561.9 286.092 561.662C285.344 563.225 284.826 564.882 284.554 566.658C284.443 567.355 284.392 568.068 284.223 568.757C283.832 570.337 283.611 571.917 283.713 573.566C283.823 575.29 284.29 576.888 285.106 578.392C286.635 581.195 288.828 583.405 291.385 585.282C294.512 587.576 297.953 588.078 301.657 587.1C302.201 586.956 302.753 586.803 303.306 586.659C303.603 587.763 303.883 588.8 304.155 589.836C304.495 591.153 305.107 592.36 305.795 593.524C307.342 596.124 309.398 598.239 312.023 599.743C315.821 601.918 319.891 602.946 324.292 602.292C326.136 602.02 327.869 601.477 329.356 600.313C331.973 598.256 333.834 595.597 335.371 592.691C335.932 591.629 336.4 590.525 336.918 589.412C337.368 589.717 337.81 590.057 338.286 590.355C342.661 593.091 347.352 594.781 352.585 594.526C354.064 594.45 355.568 594.297 357.004 593.966C358.448 593.643 359.875 593.142 361.243 592.555C363.648 591.527 365.797 590.057 367.318 587.908C369.723 584.509 371.439 580.771 372.195 576.633C372.612 574.364 372.391 572.223 371.32 570.141C369.179 565.97 365.322 565.434 361.728 566.038C360.343 566.267 359.102 566.964 357.794 567.44C355.933 568.111 354.013 568.425 352.025 568.102C348.575 567.55 346.128 565.868 345.312 562.274C344.828 560.15 345.092 558.136 346.103 556.224C347.131 554.262 348.694 552.758 350.444 551.466C353.97 548.866 357.157 545.918 359.79 542.409C360.071 542.027 360.343 541.644 360.615 541.262C361.49 540.905 362.373 540.54 363.249 540.166C363.903 539.885 364.557 539.605 365.211 539.316C364.88 541.049 364.803 542.817 364.999 544.635C365.075 545.34 365.211 546.037 365.228 546.742C365.254 548.373 365.449 549.954 365.976 551.517C366.528 553.157 367.386 554.576 368.576 555.816C370.785 558.127 373.47 559.699 376.418 560.846C380.038 562.257 383.487 561.857 386.809 559.954C387.302 559.665 387.795 559.385 388.288 559.096C388.857 560.082 389.401 561.016 389.936 561.942C390.607 563.123 391.516 564.134 392.477 565.078C394.643 567.193 397.175 568.697 400.098 569.47C404.338 570.592 408.526 570.532 412.605 568.757C414.313 568.017 415.85 567.049 416.989 565.536C418.986 562.877 420.099 559.818 420.829 556.615C421.093 555.451 421.263 554.253 421.475 553.047C421.985 553.233 422.503 553.437 423.03 553.599C427.966 555.111 432.937 555.528 437.933 553.93C439.343 553.471 440.745 552.936 442.054 552.248C443.371 551.551 444.62 550.701 445.784 549.784C447.84 548.17 449.539 546.19 450.448 543.726C451.893 539.818 452.572 535.765 452.232 531.576C452.046 529.282 451.281 527.26 449.709 525.526C446.557 522.051 442.699 522.536 439.386 524.048C438.103 524.626 437.092 525.62 435.945 526.419C434.322 527.549 432.546 528.347 430.541 528.551C427.066 528.908 424.271 527.914 422.554 524.66C421.535 522.74 421.271 520.717 421.747 518.61C422.231 516.444 423.353 514.6 424.704 512.892C427.44 509.459 429.751 505.797 431.391 501.719C431.594 501.209 431.79 500.7 431.985 500.181C433.277 499.196 434.551 498.193 435.826 497.19C435.945 499 436.327 500.776 437.015 502.526C437.27 503.181 437.576 503.826 437.78 504.506C438.23 506.078 438.825 507.548 439.743 508.924C440.703 510.369 441.901 511.516 443.371 512.408C446.098 514.073 449.097 514.889 452.25 515.237C456.107 515.662 459.327 514.379 462.055 511.677C462.462 511.278 462.853 510.878 463.261 510.471C464.068 511.278 464.833 512.034 465.581 512.799C466.541 513.767 467.671 514.506 468.852 515.169C471.486 516.648 474.332 517.446 477.348 517.438C481.732 517.429 485.76 516.274 489.252 513.504C490.705 512.348 491.937 511.014 492.642 509.256C493.882 506.171 494.171 502.934 494.044 499.655C493.993 498.457 493.84 497.258 493.738 496.044C494.282 496.086 494.834 496.154 495.386 496.18C500.544 496.366 505.455 495.483 509.864 492.645C511.113 491.838 512.328 490.954 513.407 489.952C514.503 488.94 515.481 487.793 516.373 486.604C517.945 484.514 519.066 482.16 519.312 479.552C519.695 475.397 519.304 471.31 517.894 467.342C517.12 465.176 515.863 463.425 513.892 462.151C509.949 459.611 506.347 461.08 503.534 463.391C502.447 464.284 501.725 465.507 500.824 466.578C499.558 468.09 498.046 469.322 496.159 470.036C492.897 471.276 489.94 471.047 487.434 468.345C485.955 466.748 485.173 464.87 485.089 462.712C485.004 460.503 485.607 458.421 486.473 456.424C488.224 452.406 489.507 448.259 490.034 443.901C490.101 443.323 490.161 442.745 490.22 442.167C491.198 440.901 492.175 439.627 493.126 438.344C493.704 440.077 494.545 441.7 495.658 443.221C496.075 443.79 496.55 444.334 496.907 444.937C497.748 446.33 498.708 447.605 499.94 448.693C501.24 449.84 502.693 450.638 504.342 451.114C507.409 452.015 510.519 452.032 513.654 451.556C517.494 450.97 520.281 448.896 522.21 445.583C522.499 445.099 522.779 444.606 523.068 444.104C524.054 444.674 524.988 445.209 525.906 445.744C527.087 446.441 528.361 446.857 529.67 447.189C532.601 447.936 535.558 447.97 538.472 447.18C542.695 446.033 546.297 443.884 548.948 440.307C550.053 438.811 550.903 437.205 551.123 435.328C551.531 432.031 550.962 428.828 549.985 425.684C549.637 424.545 549.178 423.424 548.753 422.277C549.297 422.183 549.849 422.099 550.384 421.98C555.414 420.824 559.926 418.7 563.443 414.817C564.437 413.712 565.389 412.548 566.179 411.299C566.961 410.042 567.624 408.682 568.176 407.298C569.153 404.876 569.629 402.31 569.187 399.727C568.482 395.623 567.054 391.766 564.667 388.308C563.35 386.405 561.685 385.045 559.45 384.332C554.989 382.896 551.888 385.241 549.772 388.206C548.948 389.353 548.566 390.721 547.98 391.978C547.139 393.763 546.009 395.343 544.369 396.524C541.539 398.572 538.617 399.115 535.498 397.144C533.663 395.989 532.423 394.383 531.777 392.31C531.123 390.194 531.174 388.028 531.496 385.878C532.151 381.536 532.312 377.203 531.692 372.861C531.615 372.309 531.53 371.748 531.437 371.196C532.057 369.709 532.669 368.214 533.264 366.718C534.275 368.231 535.498 369.573 536.96 370.746C537.512 371.187 538.107 371.587 538.617 372.08C539.789 373.21 541.047 374.195 542.525 374.926C544.071 375.699 545.686 376.09 547.393 376.132C550.597 376.209 553.604 375.419 556.502 374.144C560.062 372.589 562.211 369.854 563.214 366.158C563.367 365.614 563.511 365.061 563.656 364.509C564.76 364.807 565.797 365.078 566.833 365.359C568.15 365.716 569.493 365.792 570.844 365.775C573.877 365.741 576.732 365.01 579.349 363.49C583.138 361.289 586.053 358.281 587.684 354.143C588.372 352.41 588.771 350.634 588.5 348.774C588.032 345.477 586.656 342.537 584.906 339.75C584.268 338.739 583.546 337.779 582.841 336.777C583.334 336.547 583.843 336.326 584.336 336.063C588.89 333.641 592.705 330.43 595.093 325.765C595.773 324.448 596.384 323.072 596.818 321.653C597.251 320.234 597.531 318.747 597.71 317.277C598.024 314.686 597.82 312.077 596.724 309.698C594.982 305.917 592.595 302.561 589.392 299.834C587.633 298.338 585.662 297.455 583.325 297.344C578.644 297.115 576.256 300.182 574.973 303.598C574.48 304.915 574.463 306.334 574.217 307.702C573.869 309.647 573.18 311.474 571.914 313.037C569.705 315.748 567.029 317.022 563.511 315.935C561.43 315.289 559.824 314.057 558.66 312.23C557.479 310.361 556.969 308.254 556.723 306.096C556.23 301.737 555.27 297.514 553.545 293.47C553.324 292.952 553.095 292.442 552.865 291.932C553.086 290.335 553.282 288.729 553.46 287.132C554.828 288.33 556.366 289.324 558.091 290.08C558.736 290.369 559.416 290.598 560.028 290.938C561.455 291.728 562.925 292.348 564.539 292.671C566.239 293.011 567.896 292.977 569.561 292.569C572.671 291.813 575.364 290.275 577.845 288.296C580.878 285.866 582.255 282.679 582.263 278.847C582.272 278.278 582.263 277.717 582.263 277.14C583.41 277.14 584.481 277.131 585.551 277.14C586.911 277.148 588.236 276.868 589.536 276.502C592.45 275.687 595.025 274.242 597.149 272.101C600.242 269 602.281 265.33 602.791 260.911C602.995 259.059 602.927 257.241 602.187 255.508C600.887 252.449 598.797 249.959 596.384 247.725C595.509 246.909 594.549 246.17 593.615 245.388C594.031 245.031 594.464 244.692 594.872 244.318C598.653 240.8 601.499 236.705 602.604 231.581C602.91 230.129 603.148 228.642 603.207 227.163C603.258 225.676 603.148 224.172 602.935 222.703C602.57 220.111 601.703 217.656 600.029 215.634C597.37 212.43 594.201 209.813 590.403 208.004C588.321 207.018 586.189 206.67 583.894 207.163C579.315 208.157 577.802 211.734 577.454 215.362C577.318 216.755 577.667 218.132 577.785 219.525C577.955 221.496 577.76 223.433 576.936 225.277C575.508 228.463 573.248 230.392 569.569 230.247C567.394 230.163 565.517 229.389 563.928 227.919C562.296 226.416 561.251 224.521 560.461 222.499C558.855 218.42 556.833 214.58 554.123 211.122C553.8 210.714 553.468 210.315 553.146 209.915C552.942 208.293 552.712 206.67 552.491 205.055C554.097 205.837 555.805 206.381 557.632 206.67C558.328 206.78 559.042 206.831 559.722 207.001C561.311 207.392 562.891 207.613 564.531 207.511C566.256 207.4 567.853 206.933 569.357 206.117C572.161 204.588 574.378 202.396 576.256 199.839C578.55 196.712 579.051 193.271 578.074 189.566C577.93 189.022 577.777 188.47 577.633 187.918C578.737 187.621 579.774 187.34 580.81 187.068C582.127 186.728 583.334 186.117 584.498 185.428C587.098 183.882 589.213 181.817 590.717 179.201C592.892 175.403 593.92 171.333 593.258 166.932C592.986 165.088 592.442 163.355 591.278 161.868C589.23 159.251 586.562 157.39 583.657 155.852C582.594 155.291 581.49 154.824 580.377 154.306C580.691 153.855 581.023 153.414 581.312 152.946C584.056 148.571 585.747 143.881 585.483 138.647C585.407 137.168 585.254 135.664 584.923 134.229C584.6 132.784 584.098 131.357 583.512 129.989C582.476 127.584 581.014 125.435 578.865 123.914C575.466 121.509 571.727 119.801 567.59 119.037C565.321 118.62 563.171 118.841 561.098 119.912C556.927 122.053 556.391 125.91 556.986 129.505C557.215 130.889 557.912 132.13 558.388 133.438C559.059 135.299 559.374 137.219 559.051 139.208C558.49 142.657 556.816 145.104 553.222 145.92C551.098 146.404 549.084 146.141 547.173 145.13C545.21 144.101 543.714 142.538 542.414 140.788C539.815 137.262 536.866 134.076 533.357 131.442C533.009 131.178 532.652 130.932 532.304 130.677C531.828 129.53 531.361 128.383 530.876 127.244C530.706 126.837 530.528 126.437 530.358 126.029C532.057 126.352 533.807 126.42 535.592 126.225C536.297 126.148 537.002 126.012 537.699 126.004C539.33 125.978 540.911 125.775 542.474 125.256C544.114 124.704 545.533 123.846 546.773 122.656C549.084 120.447 550.656 117.762 551.803 114.806C553.214 111.195 552.814 107.736 550.911 104.414C550.622 103.922 550.342 103.429 550.053 102.936C551.038 102.367 551.973 101.823 552.899 101.296C554.08 100.616 555.091 99.7243 556.026 98.7557C558.142 96.5891 559.645 94.0571 560.427 91.1343C561.549 86.9031 561.481 82.7058 559.713 78.6275C558.974 76.9282 558.006 75.3818 556.493 74.2518C553.834 72.2551 550.775 71.1421 547.572 70.4113C546.408 70.1395 545.21 69.978 544.003 69.7656C544.19 69.2473 544.403 68.729 544.564 68.2023C546.076 63.2658 546.493 58.3038 544.895 53.3079C544.437 51.8975 543.893 50.4956 543.205 49.1871C542.508 47.8701 541.658 46.6212 540.741 45.4571C539.126 43.401 537.147 41.7017 534.683 40.7926C530.774 39.3481 526.721 38.6684 522.533 39.0083C520.239 39.1952 518.225 39.9599 516.483 41.5318C513.008 44.6839 513.492 48.5414 515.005 51.855C515.591 53.138 516.577 54.1491 517.375 55.2961C518.497 56.9189 519.312 58.6947 519.516 60.6999C519.865 64.1749 518.879 66.9703 515.625 68.6866C513.696 69.7061 511.683 69.9695 509.575 69.4937C507.409 69.0009 505.557 67.8794 503.866 66.5285C500.433 63.7926 496.763 61.49 492.693 59.8502C492.328 59.7058 491.954 59.5613 491.597 59.4169C490.569 58.0659 489.524 56.7235 488.479 55.3895C490.178 55.2451 491.843 54.8712 493.5 54.2255C494.163 53.9706 494.8 53.6563 495.471 53.4608C497.043 53.0105 498.522 52.4073 499.889 51.4982C501.334 50.538 502.481 49.34 503.373 47.8701C505.038 45.1428 505.854 42.1435 506.211 38.9913C506.636 35.1339 505.344 31.9052 502.642 29.1863C502.243 28.787 501.844 28.3877 501.444 27.9798C502.251 27.1727 503.008 26.408 503.772 25.6518C504.741 24.6917 505.472 23.5701 506.143 22.3891C507.621 19.7552 508.42 16.9089 508.411 13.8926C508.403 9.50844 507.247 5.4811 504.478 1.98904C503.322 0.53614 501.988 -0.704346 500.229 -1.40956C497.145 -2.65005 493.916 -2.93043 490.628 -2.80299C489.43 -2.75201 488.232 -2.60756 487.017 -2.49711C487.06 -3.04089 487.128 -3.59316 487.153 -4.14544C487.34 -9.30281 486.465 -14.2138 483.619 -18.6235C482.811 -19.864 481.928 -21.0875 480.925 -22.1665C479.914 -23.2541 478.776 -24.2397 477.586 -25.1318C475.496 -26.6951 473.151 -27.8252 470.534 -28.0631C466.388 -28.4454 462.292 -28.0546 458.325 -26.6442C456.158 -25.871 454.408 -24.6135 453.142 -22.6423C450.601 -18.6999 452.063 -15.0974 454.382 -12.2851C455.274 -11.1975 456.498 -10.4753 457.56 -9.5747C459.072 -8.30022 460.304 -6.79635 461.018 -4.91013C462.258 -1.64747 462.029 1.30932 459.327 3.81579C457.73 5.29417 455.852 6.07586 453.694 6.16083C451.485 6.24579 449.403 5.64254 447.406 4.77589C443.388 3.02561 439.241 1.74264 434.891 1.21586C434.585 1.17338 434.271 1.1394 433.965 1.11391C432.597 0.0433426 431.212 -1.01871 429.827 -2.05529C431.382 -2.62455 432.843 -3.40624 434.211 -4.41733C434.781 -4.83366 435.324 -5.30096 435.928 -5.66631C437.321 -6.50747 438.596 -7.46757 439.683 -8.69956C440.83 -9.99953 441.62 -11.4524 442.105 -13.1007C443.005 -16.168 443.022 -19.2777 442.538 -22.4129C441.952 -26.2533 439.879 -29.0317 436.565 -30.9689C436.081 -31.2493 435.588 -31.5297 435.087 -31.8185C435.656 -32.8126 436.191 -33.7472 436.735 -34.6649C437.432 -35.8374 437.848 -37.1289 438.179 -38.4373C438.927 -41.3686 438.961 -44.3169 438.171 -47.2397C437.024 -51.4709 434.874 -55.065 431.297 -57.7159C429.802 -58.8204 428.187 -59.6701 426.318 -59.8995C423.013 -60.2988 419.818 -59.7295 416.675 -58.7609C415.536 -58.4041 414.415 -57.9538 413.268 -57.5289C413.166 -58.0642 413.089 -58.6165 412.97 -59.1603C411.815 -64.1902 409.699 -68.7018 405.808 -72.2194C404.703 -73.2135 403.539 -74.1566 402.29 -74.9468C401.033 -75.7369 399.673 -76.3912 398.288 -76.9434C395.867 -77.9205 393.301 -78.3963 390.709 -77.9545C386.605 -77.2578 382.748 -75.8134 379.29 -73.4259C377.387 -72.1174 376.027 -70.4436 375.305 -68.2175C373.878 -63.7569 376.223 -60.6472 379.188 -58.5315C380.335 -57.7159 381.703 -57.3335 382.96 -56.7388C384.745 -55.8976 386.325 -54.7676 387.506 -53.1278C389.554 -50.2984 390.098 -47.3756 388.126 -44.2659C386.971 -42.4222 385.365 -41.1817 383.292 -40.5444C381.176 -39.8902 379.018 -39.9327 376.868 -40.2556C372.527 -40.9098 368.193 -41.0712 363.852 -40.451C363.665 -40.4255 363.486 -40.4 363.3 -40.366C363.283 -40.3745 363.257 -40.383 363.24 -40.3915C361.6 -41.0882 359.952 -41.7679 358.304 -42.4222C359.578 -43.3483 360.734 -44.4443 361.753 -45.7103C362.195 -46.2626 362.594 -46.8573 363.087 -47.3671C364.217 -48.5396 365.203 -49.7971 365.933 -51.267C366.707 -52.8219 367.097 -54.4362 367.14 -56.144C367.216 -59.3387 366.426 -62.3465 365.152 -65.2523C363.597 -68.8038 360.87 -70.9534 357.165 -71.9645C356.621 -72.1089 356.069 -72.2534 355.517 -72.4063C355.814 -73.5109 356.086 -74.5474 356.366 -75.584C356.732 -76.901 356.8 -78.2434 356.783 -79.6028C356.749 -82.6276 356.018 -85.4909 354.497 -88.0993C352.297 -91.8888 349.289 -94.8031 345.151 -96.4429C343.418 -97.1226 341.642 -97.522 339.781 -97.2671C336.485 -96.7998 333.545 -95.4233 330.758 -93.673C329.747 -93.0358 328.787 -92.3051 327.784 -91.5999C327.546 -92.0927 327.334 -92.611 327.07 -93.0953C324.649 -97.6579 321.437 -101.464 316.773 -103.852C315.456 -104.532 314.079 -105.143 312.66 -105.577C311.241 -106.018 309.755 -106.29 308.285 -106.469C305.693 -106.783 303.085 -106.579 300.706 -105.483C296.925 -103.741 293.569 -101.362 290.841 -98.1507C289.346 -96.4004 288.462 -94.4292 288.352 -92.0927C288.122 -87.4026 291.19 -85.0236 294.605 -83.7406C295.922 -83.2478 297.341 -83.2309 298.709 -82.9845C300.655 -82.6361 302.482 -81.9564 304.036 -80.6819C306.747 -78.4813 308.021 -75.7964 306.934 -72.2789C306.288 -70.2057 305.056 -68.5914 303.229 -67.4359C301.36 -66.2463 299.253 -65.7281 297.095 -65.4902C292.736 -64.9974 288.505 -64.0373 284.469 -62.3125C284.367 -62.27 284.257 -62.2275 284.155 -62.1765C282.328 -62.4314 280.501 -62.6608 278.674 -62.8817C279.634 -64.0797 280.433 -65.4052 281.07 -66.8581C281.359 -67.5038 281.589 -68.1835 281.928 -68.7953C282.719 -70.2142 283.339 -71.6841 283.662 -73.2984C284.002 -74.9977 283.968 -76.6546 283.56 -78.3199C282.804 -81.4296 281.266 -84.1315 279.278 -86.604C276.856 -89.6287 273.661 -91.0051 269.829 -91.0221C269.26 -91.0306 268.699 -91.0221 268.122 -91.0221C268.122 -92.1692 268.113 -93.2397 268.122 -94.3103C268.13 -95.6697 267.85 -96.9952 267.484 -98.2951C266.669 -101.209 265.224 -103.784 263.083 -105.917C259.982 -109.001 256.32 -111.04 251.893 -111.55C250.041 -111.762 248.223 -111.686 246.49 -110.955C243.431 -109.655 240.941 -107.556 238.707 -105.152C237.891 -104.277 237.152 -103.317 236.37 -102.382C236.013 -102.798 235.673 -103.24 235.3 -103.648C231.782 -107.429 227.687 -110.267 222.563 -111.38C221.11 -111.694 219.624 -111.932 218.145 -111.983C217.941 -111.992 217.737 -111.992 217.533 -112L217.525 -111.983Z" fill="white"/>
<path d="M452.402 251.363C452.402 367.841 357.641 462.603 241.162 462.603C124.683 462.603 29.9218 367.841 29.9218 251.363C29.9218 134.884 124.683 40.1229 241.162 40.1229C357.641 40.1229 452.402 134.884 452.402 251.363ZM469.039 273.598C474.884 280.863 484.196 284.907 490.815 285.069C492.863 285.119 494.902 285.009 496.831 284.321C499.269 283.446 500.943 281.653 502.226 279.486C503.993 276.504 504.673 273.224 504.63 269.783C504.622 269.248 504.783 269.01 505.268 268.815C512.167 265.917 518.267 261.848 523.459 256.444C527.741 251.983 531.148 246.953 533.391 241.159C535.711 235.135 535.447 229.264 532.491 223.537C531.293 221.209 529.602 219.272 527.223 218.057C525.184 217.012 523.51 217.317 521.972 219C519.882 221.277 519.346 223.979 519.882 226.961C520.162 228.49 520.434 230.02 520.103 231.566C519.058 236.469 516.695 240.216 511.513 241.617C507.392 242.739 503.246 242.883 499.031 242.263C489.498 240.861 481.707 236.443 475.768 228.813C471.766 223.681 468.979 217.912 466.948 211.769C466.761 211.191 466.575 210.614 466.405 210.036C466.158 208.702 465.903 207.377 465.64 206.051C473.346 211.259 483.406 212.406 489.77 210.631C491.741 210.078 493.653 209.382 495.31 208.15C497.374 206.603 498.453 204.394 499.048 201.956C499.872 198.583 499.567 195.252 498.513 191.972C498.352 191.471 498.436 191.191 498.844 190.859C504.588 186.076 509.236 180.4 512.609 173.705C515.404 168.182 517.197 162.379 517.639 156.185C518.097 149.753 516.126 144.205 511.623 139.591C509.796 137.714 507.613 136.354 504.987 135.887C502.727 135.488 501.223 136.261 500.238 138.325C498.904 141.112 499.176 143.857 500.561 146.55C501.274 147.927 501.971 149.311 502.115 150.892C502.557 155.888 501.385 160.153 496.839 163.016C493.228 165.293 489.303 166.644 485.097 167.282C475.564 168.726 466.821 166.78 458.919 161.224C453.583 157.477 449.25 152.778 445.503 147.493C445.163 147.009 444.824 146.525 444.492 146.032C443.863 144.817 443.226 143.61 442.572 142.404C451.459 145.131 461.426 143.287 466.991 139.719C468.716 138.614 470.347 137.391 471.562 135.734C473.091 133.652 473.482 131.222 473.329 128.707C473.134 125.241 471.859 122.148 469.905 119.319C469.599 118.885 469.608 118.597 469.888 118.155C473.984 111.901 476.77 105.104 478.045 97.7207C479.098 91.6287 479.124 85.5537 477.73 79.4957C476.286 73.2083 472.786 68.4843 467.135 65.383C464.833 64.1255 462.352 63.4628 459.701 63.7857C457.432 64.0661 456.217 65.2386 455.877 67.5072C455.419 70.5659 456.481 73.1064 458.596 75.2815C459.675 76.3945 460.754 77.5075 461.349 78.9774C463.218 83.6335 463.354 88.0517 459.845 92.1215C457.05 95.3587 453.694 97.7972 449.862 99.6324C441.162 103.796 432.249 104.501 423.055 101.493C416.87 99.471 411.339 96.2423 406.215 92.2915C405.638 91.8411 405.068 91.3823 404.499 90.9235C404.023 90.4307 403.539 89.9464 403.055 89.4621C402.664 89.0713 402.264 88.6804 401.865 88.2811C411.186 88.3236 420.209 83.625 424.5 78.5866C425.825 77.0232 427.023 75.3749 427.703 73.4377C428.561 70.9992 428.213 68.5607 427.346 66.2072C426.14 62.953 424.024 60.3616 421.322 58.2375C420.906 57.9146 420.821 57.6342 420.965 57.1244C423.055 49.9449 423.727 42.6379 422.801 35.2035C422.027 29.069 420.269 23.2574 417.167 17.8706C413.956 12.2714 409.215 8.77935 402.91 7.47089C400.344 6.93562 397.77 7.02908 395.331 8.11663C393.241 9.04276 392.426 10.5296 392.757 12.7897C393.216 15.8484 394.974 17.9726 397.625 19.434C398.985 20.1817 400.344 20.9294 401.347 22.1613C404.499 26.0612 405.926 30.25 403.751 35.1695C402.027 39.0779 399.529 42.3915 396.393 45.2718C389.299 51.7971 380.972 55.0768 371.303 54.8899C364.795 54.7624 358.567 53.301 352.509 51.0154C351.999 50.82 351.489 50.6161 350.988 50.4207C349.756 49.741 348.516 49.0782 347.258 48.424C356.145 45.7136 363.359 38.6191 365.976 32.5526C366.792 30.6748 367.454 28.7461 367.539 26.69C367.641 24.107 366.605 21.881 365.075 19.8758C362.977 17.1144 360.19 15.2537 356.987 14.0132C356.494 13.8178 356.332 13.5799 356.324 13.0531C356.222 5.57618 354.735 -1.61186 351.668 -8.44305C349.136 -14.0847 345.754 -19.1316 341.217 -23.3799C336.501 -27.7811 330.953 -29.7438 324.538 -29.149C321.93 -28.9026 319.5 -28.07 317.486 -26.3112C315.753 -24.8073 315.413 -23.1505 316.39 -21.0943C317.716 -18.299 320.027 -16.7866 322.992 -16.1664C324.513 -15.852 326.025 -15.5291 327.342 -14.637C331.497 -11.8331 334.08 -8.23913 333.443 -2.90332C332.933 1.34492 331.514 5.23632 329.364 8.9068C324.487 17.2249 317.478 22.7901 308.183 25.441C301.921 27.2253 295.54 27.6416 289.074 27.2253C288.573 27.1913 288.08 27.1488 287.579 27.1063C282.243 26.0103 276.873 25.1096 271.452 24.3874C278.878 18.8052 283.228 9.663 283.619 3.06971C283.738 1.02206 283.704 -1.00861 283.075 -2.9713C282.285 -5.43528 280.552 -7.16857 278.436 -8.52801C275.514 -10.4057 272.268 -11.1959 268.827 -11.2724C268.3 -11.2894 268.062 -11.4508 267.875 -11.9521C265.224 -18.9447 261.367 -25.1896 256.141 -30.5594C251.834 -34.9946 246.931 -38.5801 241.213 -41.0186C235.274 -43.5506 229.394 -43.4911 223.566 -40.7297C221.195 -39.6082 219.199 -37.9939 217.907 -35.6573C216.794 -33.6522 217.04 -31.9783 218.663 -30.381C220.864 -28.2059 223.549 -27.5687 226.548 -28.002C228.086 -28.2229 229.624 -28.4438 231.162 -28.053C236.03 -26.838 239.684 -24.34 240.907 -19.1146C241.884 -14.9514 241.876 -10.8051 241.111 -6.62479C239.369 2.8573 234.688 10.4872 226.862 16.1628C221.595 19.9777 215.732 22.5522 209.521 24.3789C209.028 24.5234 208.544 24.6593 208.051 24.7868C206.632 24.9907 205.205 25.2031 203.786 25.441C209.232 17.9301 210.719 7.93821 209.164 1.53185C208.68 -0.464828 208.051 -2.40204 206.879 -4.08434C205.409 -6.21696 203.234 -7.35549 200.812 -8.04371C197.473 -8.97832 194.134 -8.78291 190.82 -7.84829C190.31 -7.70385 190.039 -7.79731 189.716 -8.22213C185.136 -14.1357 179.622 -18.9702 173.054 -22.5897C167.633 -25.572 161.898 -27.5687 155.721 -28.2229C149.306 -28.9026 143.69 -27.1353 138.932 -22.7936C136.995 -21.0264 135.559 -18.9022 134.998 -16.2853C134.522 -14.0507 135.245 -12.5129 137.267 -11.4593C140.011 -10.0234 142.764 -10.2018 145.5 -11.4933C146.902 -12.156 148.312 -12.8102 149.893 -12.8952C154.897 -13.1501 159.128 -11.8416 161.83 -7.19406C163.98 -3.49808 165.186 0.46978 165.679 4.68404C166.792 14.2596 164.541 22.926 158.712 30.6408C154.787 35.8322 149.935 40.0125 144.523 43.564C144.157 43.8104 143.784 44.0398 143.41 44.2777C142.05 44.9235 140.699 45.5692 139.357 46.2319C142.365 37.4635 140.861 27.4886 137.505 21.813C136.46 20.0542 135.296 18.3804 133.681 17.1059C131.651 15.5086 129.238 15.0413 126.723 15.1008C123.256 15.1772 120.112 16.3412 117.223 18.202C116.782 18.4909 116.493 18.4739 116.059 18.1765C109.95 13.8688 103.264 10.844 95.9312 9.31463C89.8817 8.04865 83.8067 7.81076 77.7062 8.99178C71.3678 10.2153 66.5248 13.5459 63.2366 19.0941C61.8942 21.3542 61.1465 23.8012 61.3759 26.4691C61.5713 28.7546 62.7098 30.0036 64.9614 30.4284C68.0032 30.9977 70.5861 30.0206 72.8292 27.9814C73.9762 26.9364 75.1317 25.8998 76.6271 25.356C81.3427 23.6397 85.7609 23.6652 89.7118 27.3187C92.847 30.2245 95.1665 33.6571 96.8658 37.557C100.732 46.3849 101.114 55.3317 97.7919 64.4144C95.5574 70.5234 92.1418 75.9357 88.004 80.9231C87.6641 81.3395 87.3073 81.7473 86.9589 82.1551C85.9138 83.1067 84.8772 84.0753 83.8492 85.0524C84.1805 75.7658 79.8133 66.6405 74.9363 62.1798C73.424 60.7949 71.8181 59.5459 69.9064 58.7982C67.4934 57.8636 65.0549 58.1185 62.6674 58.9087C59.3707 60.0048 56.7113 62.0269 54.4852 64.6523C54.1454 65.0602 53.865 65.1281 53.3637 64.9667C46.2606 62.6217 38.9791 61.6956 31.5192 62.3753C25.3592 62.9361 19.4881 64.4824 13.9908 67.3967C8.28968 70.4215 4.62769 75.0351 3.10682 81.297C2.48657 83.8374 2.48657 86.4119 3.48915 88.8844C4.3473 91.0085 5.80021 91.8751 8.06878 91.6202C11.1445 91.2719 13.3281 89.5811 14.8745 86.9811C15.6732 85.6472 16.4718 84.3217 17.7378 83.3616C21.7397 80.3454 25.9794 79.0709 30.8224 81.4074C34.6714 83.2682 37.8915 85.8851 40.6614 89.1053C46.9403 96.4207 49.9226 104.866 49.3958 114.518C49.0475 121.018 47.3567 127.195 44.8587 133.168C44.7057 133.533 44.5443 133.899 44.3829 134.264C43.5927 135.581 42.8195 136.915 42.0633 138.249C39.6418 129.311 32.8276 121.885 26.8801 119.064C25.0278 118.189 23.1331 117.458 21.0769 117.305C18.5025 117.11 16.2424 118.078 14.1863 119.523C11.3569 121.528 9.40273 124.247 8.04329 127.407C7.83088 127.892 7.59298 128.045 7.06619 128.036C-0.41074 127.875 -7.64128 129.115 -14.5829 131.945C-20.3096 134.281 -25.4755 137.484 -29.8766 141.869C-34.4478 146.423 -36.5974 151.903 -36.2235 158.335C-36.0706 160.952 -35.3229 163.407 -33.6406 165.489C-32.1962 167.273 -30.5564 167.672 -28.4577 166.763C-25.6199 165.531 -24.0225 163.28 -23.3003 160.34C-22.935 158.836 -22.5526 157.324 -21.6265 156.041C-18.6782 151.988 -14.9993 149.524 -9.68893 150.348C-5.46617 151.002 -1.61724 152.557 1.96828 154.834C10.1079 160 15.4268 167.197 17.7548 176.585C19.3182 182.907 19.5136 189.304 18.8679 195.745C18.8339 196.093 18.7914 196.433 18.7489 196.781C18.3751 198.319 18.0097 199.857 17.6698 201.403C12.7419 193.57 4.05843 188.472 -2.4499 187.512C-4.47207 187.214 -6.51123 187.07 -8.51641 187.52C-11.0399 188.089 -12.9176 189.67 -14.4555 191.658C-16.5796 194.402 -17.6502 197.572 -18.024 200.987C-18.0835 201.514 -18.2704 201.735 -18.7802 201.871C-25.9767 203.901 -32.5276 207.198 -38.3392 211.939C-43.1312 215.848 -47.1331 220.419 -50.0559 225.907C-53.0891 231.6 -53.5479 237.463 -51.3133 243.512C-50.4042 245.976 -48.9683 248.1 -46.7507 249.596C-44.8475 250.879 -43.1652 250.777 -41.4234 249.298C-39.0699 247.293 -38.2032 244.676 -38.3732 241.651C-38.4581 240.105 -38.5431 238.55 -38.0248 237.055C-36.3935 232.314 -33.5896 228.89 -28.2708 228.125C-24.0395 227.513 -19.9102 227.879 -15.8149 229.009C-6.51973 231.566 0.676823 236.893 5.63879 245.186C8.98641 250.768 11.0341 256.835 12.3085 263.182C12.402 263.666 12.4955 264.15 12.5804 264.634C12.6654 266.087 12.7589 267.549 12.8693 268.993C5.85969 262.91 -3.95378 260.548 -10.4791 261.533C-12.5013 261.839 -14.4895 262.298 -16.2737 263.317C-18.5168 264.6 -19.8508 266.657 -20.7429 269.019C-21.9664 272.264 -22.0683 275.612 -21.4226 278.985C-21.3207 279.503 -21.4396 279.767 -21.8814 280.056C-28.1688 284.108 -33.4707 289.172 -37.6425 295.4C-41.0835 300.541 -43.573 306.08 -44.771 312.181C-46.0115 318.511 -44.7285 324.254 -40.8202 329.386C-39.2313 331.468 -37.2346 333.082 -34.6772 333.872C-32.4851 334.544 -30.8962 333.957 -29.6727 332.029C-28.0074 329.42 -27.9479 326.659 -28.993 323.821C-29.5283 322.368 -30.0636 320.907 -30.0041 319.318C-29.8257 314.305 -28.1519 310.21 -23.2834 307.924C-19.4174 306.106 -15.3561 305.248 -11.1078 305.129C-1.47281 304.857 6.96424 307.848 14.1438 314.33C18.9783 318.698 22.7083 323.889 25.784 329.59C25.9539 329.905 26.1154 330.227 26.2853 330.542C26.8291 332.012 27.3813 333.482 27.9591 334.951C19.4966 331.213 9.44521 331.842 3.50615 334.688C1.66241 335.572 -0.104874 336.591 -1.51529 338.087C-3.29107 339.973 -3.96228 342.326 -4.12371 344.841C-4.35312 348.299 -3.46098 351.528 -1.86364 354.578C-1.61724 355.046 -1.65123 355.335 -1.9911 355.734C-6.81712 361.444 -10.4111 367.841 -12.5777 375.012C-14.3705 380.934 -15.1267 386.959 -14.4895 393.135C-13.8267 399.55 -10.9209 404.674 -5.68707 408.438C-3.55445 409.967 -1.17543 410.927 1.49248 410.927C3.78654 410.936 5.12899 409.908 5.74074 407.707C6.5734 404.725 5.82571 402.074 3.99046 399.661C3.05584 398.42 2.11273 397.18 1.7049 395.65C0.40493 390.807 0.812759 386.398 4.79763 382.787C7.96682 379.915 11.5948 377.91 15.6222 376.55C24.7559 373.475 33.7028 373.865 42.4542 377.969C48.3507 380.731 53.4402 384.605 58.0453 389.159C58.3681 389.482 58.691 389.805 59.0054 390.136C59.906 391.317 60.8236 392.49 61.7497 393.662C52.5395 392.541 43.0829 396.084 38.2229 400.544C36.719 401.929 35.3256 403.425 34.4165 405.269C33.2694 407.588 33.3204 410.044 33.8982 412.491C34.6969 415.872 36.4811 418.701 38.9111 421.14C39.285 421.522 39.3359 421.803 39.1235 422.287C36.1752 429.161 34.6119 436.332 34.6374 443.817C34.6544 450.003 35.6909 455.993 38.1124 461.711C40.6274 467.65 44.9012 471.703 51.0017 473.767C53.4826 474.608 56.0401 474.829 58.5975 474.048C60.7896 473.385 61.7752 472.009 61.7158 469.723C61.6393 466.63 60.1524 464.311 57.6884 462.535C56.4309 461.634 55.1734 460.717 54.3323 459.366C51.6814 455.117 50.7807 450.784 53.5251 446.162C55.7172 442.492 58.5975 439.509 62.0556 437.037C69.8894 431.429 78.5558 429.186 88.1314 430.546C94.5803 431.463 100.579 433.681 106.314 436.689C106.73 436.909 107.138 437.13 107.546 437.351C108.744 438.218 109.942 439.068 111.157 439.9C102.032 441.523 94.028 447.675 90.6889 453.359C89.6523 455.126 88.7601 456.953 88.4288 458.983C88.0125 461.532 88.7772 463.869 90.0431 466.044C91.7934 469.043 94.3339 471.218 97.3586 472.85C97.8259 473.105 97.9534 473.359 97.8939 473.886C97.0867 481.321 97.69 488.628 99.8991 495.79C101.726 501.695 104.462 507.116 108.455 511.891C112.593 516.836 117.869 519.461 124.31 519.648C126.926 519.725 129.441 519.19 131.659 517.703C133.562 516.42 134.106 514.814 133.375 512.656C132.398 509.716 130.291 507.932 127.428 506.963C125.958 506.462 124.488 505.961 123.298 504.915C119.518 501.627 117.385 497.744 118.668 492.528C119.687 488.373 121.574 484.685 124.157 481.304C130.011 473.648 137.649 468.975 147.199 467.471C153.631 466.46 160.02 466.826 166.384 468.024C166.792 468.1 167.208 468.194 167.616 468.279C169.052 468.763 170.497 469.239 171.95 469.697C163.699 473.92 157.854 482.136 156.324 488.543C155.849 490.531 155.534 492.545 155.806 494.584C156.154 497.141 157.565 499.155 159.409 500.863C161.958 503.216 165.025 504.559 168.398 505.23C168.916 505.332 169.12 505.536 169.214 506.054C170.616 513.403 173.326 520.218 177.532 526.412C181.007 531.535 185.213 535.911 190.421 539.309C195.825 542.835 201.636 543.795 207.847 542.096C210.379 541.399 212.622 540.159 214.305 538.086C215.749 536.302 215.8 534.611 214.475 532.758C212.682 530.235 210.15 529.147 207.125 529.054C205.57 529.003 204.024 528.952 202.571 528.306C197.991 526.267 194.822 523.174 194.525 517.813C194.287 513.548 195.009 509.461 196.487 505.476C199.844 496.444 205.783 489.741 214.475 485.509C220.329 482.663 226.548 481.142 232.988 480.437C233.6 480.369 234.22 480.31 234.841 480.259C236.183 480.301 237.534 480.327 238.877 480.335C232.164 486.784 228.953 496.402 229.369 503.012C229.496 505.051 229.777 507.074 230.643 508.943C231.722 511.296 233.66 512.8 235.928 513.896C239.055 515.4 242.377 515.791 245.801 515.443C246.328 515.392 246.583 515.528 246.829 515.995C250.313 522.614 254.901 528.332 260.738 533.03C265.556 536.905 270.857 539.87 276.83 541.595C283.033 543.379 288.862 542.606 294.308 539.156C296.525 537.754 298.31 535.911 299.312 533.43C300.17 531.306 299.729 529.674 297.919 528.281C295.463 526.395 292.727 526.089 289.805 526.887C288.309 527.295 286.805 527.695 285.234 527.499C280.255 526.887 276.321 524.857 274.468 519.818C272.99 515.808 272.489 511.687 272.744 507.447C273.313 497.829 277.026 489.681 284.112 483.096C288.879 478.67 294.384 475.399 300.332 472.833C300.774 472.637 301.224 472.459 301.674 472.28C303.085 471.89 304.487 471.499 305.889 471.082C301.394 479.197 301.139 489.299 303.459 495.476C304.181 497.388 305.039 499.24 306.407 500.769C308.132 502.698 310.426 503.581 312.907 503.955C316.339 504.482 319.627 503.879 322.797 502.553C323.289 502.35 323.57 502.409 323.935 502.783C329.203 508.093 335.261 512.222 342.22 515.009C347.963 517.303 353.902 518.586 360.113 518.493C366.562 518.391 371.915 515.944 376.121 511.058C377.837 509.07 378.993 506.776 379.23 504.117C379.434 501.831 378.525 500.404 376.384 499.605C373.487 498.518 370.776 499.027 368.219 500.642C366.902 501.466 365.585 502.299 364.03 502.57C359.094 503.437 354.735 502.647 351.489 498.373C348.906 494.966 347.224 491.177 346.221 487.047C343.953 477.676 345.125 468.797 349.977 460.436C353.24 454.803 357.547 450.062 362.484 445.873C362.917 445.508 363.35 445.151 363.784 444.794C364.956 444.047 366.129 443.29 367.293 442.526C365.347 451.617 368.057 461.371 372.093 466.613C373.342 468.236 374.702 469.748 376.469 470.819C378.678 472.161 381.125 472.331 383.615 471.966C387.047 471.465 390.021 469.927 392.663 467.735C393.071 467.395 393.36 467.369 393.827 467.624C400.412 471.159 407.422 473.342 414.882 473.971C421.042 474.49 427.1 473.98 433.013 472.076C439.156 470.088 443.549 466.18 446.149 460.283C447.203 457.879 447.644 455.355 447.092 452.738C446.616 450.495 445.333 449.391 443.056 449.255C439.964 449.059 437.516 450.351 435.545 452.637C434.534 453.809 433.515 454.982 432.096 455.704C427.635 457.972 423.234 458.499 418.875 455.347C415.409 452.849 412.69 449.714 410.532 446.06C405.621 437.759 404.142 428.931 406.334 419.517C407.813 413.17 410.54 407.384 414.041 401.938C414.423 401.352 414.805 400.774 415.196 400.196C416.029 399.227 416.853 398.259 417.66 397.273C418.45 406.551 423.905 415.116 429.292 418.956C430.966 420.137 432.707 421.191 434.704 421.701C437.211 422.338 439.607 421.786 441.875 420.707C445.01 419.228 447.406 416.883 449.293 414.011C449.582 413.561 449.853 413.459 450.372 413.561C457.704 415.014 465.045 415.048 472.369 413.476C478.41 412.168 484.052 409.916 489.15 406.356C494.435 402.66 497.51 397.639 498.258 391.241C498.564 388.632 498.25 386.083 496.958 383.747C495.845 381.742 494.299 381.062 492.081 381.589C489.073 382.311 487.111 384.248 485.887 387.018C485.267 388.437 484.63 389.856 483.483 390.96C479.88 394.444 475.827 396.22 470.738 394.495C466.685 393.118 463.176 390.918 460.041 388.055C452.921 381.555 448.927 373.543 448.273 363.899C447.823 357.408 448.749 351.069 450.499 344.833C450.661 344.272 450.822 343.72 450.992 343.168C451.374 342.301 451.748 341.426 452.113 340.551C452.283 340.16 452.445 339.76 452.606 339.361C456.081 347.985 463.788 354.561 470.05 356.652C471.995 357.297 473.975 357.79 476.031 357.697C478.606 357.578 480.738 356.346 482.599 354.655C485.165 352.318 486.771 349.387 487.739 346.082C487.884 345.572 488.113 345.394 488.632 345.343C496.074 344.586 503.101 342.479 509.643 338.826C515.039 335.81 519.771 332.003 523.612 327.109C527.588 322.028 529.058 316.336 527.911 309.989C527.435 307.406 526.398 305.061 524.47 303.209C522.821 301.611 521.139 301.416 519.176 302.571C516.509 304.135 515.2 306.565 514.843 309.572C514.665 311.11 514.469 312.657 513.705 314.042C511.266 318.426 507.919 321.315 502.549 321.145C498.275 321.009 494.265 319.93 490.433 318.111C481.724 313.982 475.572 307.482 472.114 298.451C469.795 292.367 468.818 286.046 468.673 279.571C468.656 278.909 468.648 278.237 468.656 277.575C468.801 276.275 468.937 274.975 469.056 273.675L469.039 273.598Z" fill="white"/>
</g>
</svg>
