<svg width="24" height="24" viewBox="0 0 24 24" fill="none" xmlns="http://www.w3.org/2000/svg">
<g id="Social Icons / White / Facebook">
<path id="BG" opacity="0.1" fill-rule="evenodd" clip-rule="evenodd" d="M0 11.6992C0 5.0718 5.37258 -0.300781 12 -0.300781C18.6274 -0.300781 24 5.0718 24 11.6992C24 18.3266 18.6274 23.6992 12 23.6992C5.37258 23.6992 0 18.3266 0 11.6992Z" fill="white"/>
<g id="fb 1" clip-path="url(#clip0_1872_10034)">
<g id="Group">
<path id="Vector" fill-rule="evenodd" clip-rule="evenodd" d="M9.79633 17.7364C9.79633 15.7347 9.79633 13.75 9.79633 11.7449C9.33753 11.7449 8.89286 11.7449 8.43759 11.7449C8.43759 11.0652 8.43759 10.4059 8.43759 9.72617C8.49759 9.72277 8.55758 9.71598 8.62111 9.71598C8.94932 9.71598 9.28107 9.70918 9.60928 9.71937C9.75398 9.72277 9.80338 9.68539 9.79986 9.54265C9.7928 9.02609 9.7928 8.51292 9.79633 7.99635C9.79986 7.41521 9.96926 6.88845 10.3998 6.46704C10.8163 6.05922 11.3492 5.83832 11.928 5.80434C12.8597 5.75336 13.7949 5.76016 14.7301 5.74316C14.7407 5.74316 14.7513 5.75336 14.7725 5.76355C14.7725 6.44665 14.7725 7.13314 14.7725 7.83662C14.7054 7.84002 14.6419 7.84342 14.5819 7.84342C14.1584 7.84342 13.7349 7.84342 13.3114 7.84342C12.8844 7.84682 12.6338 8.09151 12.6338 8.49593C12.6338 8.87995 12.6338 9.26738 12.6373 9.65141C12.6373 9.6616 12.6444 9.6718 12.655 9.70918C13.3537 9.70918 14.0596 9.70918 14.8007 9.70918C14.7089 10.3991 14.6242 11.0584 14.5325 11.7415C13.8937 11.7415 13.269 11.7415 12.6267 11.7415C12.6267 13.7534 12.6267 15.7449 12.6267 17.7432C11.6774 17.7364 10.7527 17.7364 9.79633 17.7364Z" fill="white"/>
</g>
</g>
</g>
<defs>
<clipPath id="clip0_1872_10034">
<rect width="13.5" height="13" fill="white" transform="translate(5 5.69922)"/>
</clipPath>
</defs>
</svg>
