<svg width="106" height="49" viewBox="0 0 106 49" fill="none" xmlns="http://www.w3.org/2000/svg">
<path d="M46.2618 36.7162H45.2127V31.1044C45.2127 30.9953 45.2127 30.7969 45.2127 30.7969H46.2465L46.2618 36.7162Z" fill="#FCFCFC"/>
<path d="M49.5868 32.2058V36.7162H48.6839V30.7969H49.9336L53.2052 35.0848V30.7969H54.1016V36.7162H53.0504L49.5868 32.2058Z" fill="#FCFCFC"/>
<path d="M60.2359 32.0401C59.66 31.7764 59.035 31.6366 58.4016 31.63C57.5009 31.63 56.8923 31.9572 56.8923 32.437C56.8923 32.9997 57.5925 33.0695 58.8095 33.1524C60.5194 33.268 61.1759 33.7827 61.1759 34.943C61.1759 35.8438 60.3035 36.6748 58.7048 36.6748C57.9461 36.6657 57.1959 36.514 56.4932 36.2277L55.9828 35.9769L56.358 35.1677C56.358 35.1677 56.6415 35.3487 56.84 35.449C57.4212 35.7158 58.0545 35.8499 58.6939 35.8416C59.7233 35.8416 60.1923 35.4534 60.1923 34.9409C60.1923 34.3672 59.6426 34.2146 58.4714 34.1448C56.611 34.0379 55.9087 33.5472 55.9087 32.5744C55.9087 31.5341 56.8793 30.7969 58.4234 30.7969C59.1589 30.8087 59.8858 30.9566 60.5674 31.2331C60.6481 31.2702 60.9535 31.3945 60.9535 31.3945L60.6023 32.2364C60.6023 32.2364 60.3624 32.1077 60.2359 32.0401Z" fill="#FCFCFC"/>
<path d="M68.3097 31.0903V34.5909C68.3097 36.1067 67.5834 36.7239 65.6924 36.7239C63.8015 36.7239 63.0643 36.1067 63.0643 34.5909V30.7871H64.085V34.58C64.085 35.4284 64.3271 35.8515 65.6946 35.8515C67.0621 35.8515 67.2955 35.4284 67.2955 34.5909V30.7871H68.3162C68.3162 30.7871 68.3097 30.9921 68.3097 31.0903Z" fill="#FCFCFC"/>
<path d="M71.7413 34.3322V36.6811H70.6508V30.7705H74.8755C76.4568 30.7705 76.9061 31.8763 76.9061 32.5437C76.9061 33.3136 76.4568 34.0988 75.2223 34.2645L76.8188 36.6637H75.6302L74.0467 34.3322H71.7413ZM71.7413 31.6975V33.4074H74.773C75.2615 33.4074 75.7872 33.2264 75.7741 32.559C75.761 31.9941 75.3641 31.6975 74.773 31.6975H71.7413Z" fill="#FCFCFC"/>
<path d="M81.646 30.7871L84.0059 36.6759H82.8914L82.32 35.2692H79.4846L78.8303 36.7959H77.8183L80.32 30.8024L81.646 30.7871ZM80.9307 31.8624L79.8794 34.3575H81.9318L80.9307 31.8624Z" fill="#FCFCFC"/>
<path d="M90.0388 36.678L86.3768 32.0978V36.678H85.4194V30.8066H86.7454L90.2111 35.1687V30.8066H91.1708V36.6737L90.0388 36.678Z" fill="#FCFCFC"/>
<path d="M97.9788 35.7805C97.3839 36.3552 96.5943 36.6846 95.7673 36.7031C93.824 36.7031 92.7465 35.3224 92.7465 33.7783C92.7465 32.0334 93.9875 30.8164 95.7673 30.8164C96.4936 30.8265 97.2056 31.0201 97.8371 31.3791L98.2733 31.6256L97.7782 32.4173C97.7782 32.4173 97.5034 32.2581 97.3703 32.1599C96.918 31.8378 96.3771 31.6633 95.8218 31.6605C94.6397 31.6605 93.8087 32.5329 93.8087 33.7543C93.8087 34.9473 94.6288 35.8612 95.7171 35.8612C96.4608 35.8612 97.2242 35.3748 97.571 35.0324C97.6822 34.9233 97.9352 34.7161 97.9352 34.7161L98.4347 35.3922C98.4347 35.3922 98.1293 35.6387 97.9788 35.7805Z" fill="#FCFCFC"/>
<path d="M101.33 31.6846V33.2375H103.794V34.1252H101.33V35.8155H105.101V36.6879H100.303V30.7969H105.101V31.6846H101.33Z" fill="#FCFCFC"/>
<path d="M45.0393 10L52.6315 10.0262C55.8071 10.0371 57.2466 11.891 57.24 13.6511C57.24 14.9793 56.625 15.8147 55.1222 16.6195C56.9085 17.5202 57.5999 18.4755 57.5934 20.0066C57.5934 22.9794 54.7798 23.8649 52.7951 23.8584L45 23.8322C45 23.8322 45 23.3698 45 23.1103L45.0414 10.7219C45.024 10.4624 45.0393 10 45.0393 10ZM47.4384 12.0873V15.6097L52.3763 15.6271C53.5039 15.6271 54.6882 15.2323 54.6926 13.8823C54.6969 12.5322 53.7176 12.1178 52.5115 12.1134L47.4384 12.0873ZM47.4253 17.686L47.4122 21.758L52.3196 21.7733C52.9281 21.7733 54.9478 21.8693 54.9565 19.8474C54.9565 18.4319 53.951 17.7078 52.4788 17.7035L47.4253 17.686Z" fill="#FCFCFC"/>
<path d="M64.5666 10.4363L64.5251 23.0864C64.5251 23.3219 64.5251 23.793 64.5251 23.793H62.0583C62.0583 23.793 62.0583 23.3568 62.0583 23.0886L62.1063 10.0459H64.5731C64.5731 10.0459 64.5687 10.1724 64.5666 10.4363Z" fill="#FCFCFC"/>
<path d="M74.0766 10.0315L79.021 19.229L84.2076 10.0293H87.3025L87.2545 23.7917H84.7986L84.8335 13.2289L78.8596 23.7982L72.9555 13.0915L72.9228 23.7415H70.7832L70.8312 10.038L74.0766 10.0315Z" fill="#FCFCFC"/>
<path d="M100.194 10.0293L105.428 23.7546H103.005L101.71 20.3217L95.2057 20.3086L93.7706 23.7612H91.4979L97.1686 10.0337L100.194 10.0293ZM98.5623 12.4808L96.1414 18.1668L100.828 18.1842L98.5623 12.4808Z" fill="#FCFCFC"/>
<path d="M34.707 10.4036L34.864 7.98045L32.9513 6.23561L28.7462 10.3273H26.1289L23.0253 13.1321L22.8399 18.1834L19.2935 19.4048L15.7406 18.1878L15.5574 13.1364L12.4516 10.3294H9.83434L5.8234 6.23997H11.8976L13.7013 6.09821L19.287 10.0372L24.8879 6.08076L26.6458 6.23997H32.9447H30.4779L24.046 0H14.6392L8.32724 6.2378H5.80813L3.89753 7.88885L4.06329 10.3164L0 14.6283L0.0763363 29.4943L18.0547 46.6744L19.4724 44.7551L20.7461 48.7464L38.6939 29.4943L38.7703 14.6305L34.707 10.4036ZM10.0612 12.3665L14.2837 16.4015L11.7406 18.2205L6.02623 12.384L10.0612 12.3665ZM20.7243 34.8313L19.4157 33.7081L17.9915 35.8891L14.5323 31.1432L17.5858 28.2795H20.9511L24.0046 31.1432L20.7243 34.8313ZM22.757 28.3667L19.2826 25.3132L15.8104 28.3558L11.2106 23.7102C11.2106 23.7102 14.9881 20.0133 15.0558 20.0286C16.4974 20.3557 18.5694 21.7167 19.2848 22.2096C20.0242 21.7014 22.2031 20.2707 23.6469 20.0046C23.6687 20.0046 27.3547 23.7123 27.3547 23.7123L22.757 28.3667ZM26.8094 18.2205L24.2663 16.4015L28.491 12.3753H32.5259L26.8094 18.2205Z" fill="#FBBE07"/>
</svg>
