<svg width="24" height="24" viewBox="0 0 24 24" fill="none" xmlns="http://www.w3.org/2000/svg">
<path opacity="0.1" fill-rule="evenodd" clip-rule="evenodd" d="M0 12C0 5.37258 5.37258 0 12 0C18.6274 0 24 5.37258 24 12C24 18.6274 18.6274 24 12 24C5.37258 24 0 18.6274 0 12Z" fill="white"/>
<path d="M9.84 16.6667H7.70667V10.2667H9.84V16.6667ZM8.77376 9.41336C8.18368 9.41336 7.70667 8.93507 7.70667 8.34627C7.70667 7.75747 8.18453 7.28003 8.77376 7.28003C9.3617 7.28003 9.84 7.75832 9.84 8.34627C9.84 8.93507 9.3617 9.41336 8.77376 9.41336ZM17.52 16.6667H15.469V13.552C15.469 12.8092 15.4549 11.8539 14.4028 11.8539C13.3348 11.8539 13.1706 12.6629 13.1706 13.4983V16.6667H11.12V10.262H13.0886V11.1371H13.1164C13.3903 10.6336 14.0597 10.1029 15.0581 10.1029C17.136 10.1029 17.52 11.4294 17.52 13.1539C17.52 13.1539 17.52 16.6667 17.52 16.6667Z" fill="white"/>
</svg>
