<svg width="24" height="25" viewBox="0 0 24 25" fill="none" xmlns="http://www.w3.org/2000/svg">
<path opacity="0.1" fill-rule="evenodd" clip-rule="evenodd" d="M0 12.3018C0 5.67434 5.37258 0.301758 12 0.301758C18.6274 0.301758 24 5.67434 24 12.3018C24 18.9292 18.6274 24.3018 12 24.3018C5.37258 24.3018 0 18.9292 0 12.3018Z" fill="white"/>
<path fill-rule="evenodd" clip-rule="evenodd" d="M12.0006 5.90173C10.2624 5.90173 10.0443 5.90933 9.36161 5.9404C8.68027 5.9716 8.2152 6.07947 7.80827 6.23774C7.38733 6.40121 7.03026 6.61987 6.67452 6.97574C6.31852 7.33148 6.09985 7.68855 5.93585 8.10936C5.77718 8.51643 5.66918 8.98163 5.63851 9.66271C5.60798 10.3454 5.59998 10.5636 5.59998 12.3018C5.59998 14.04 5.60771 14.2574 5.63864 14.9401C5.66998 15.6214 5.77784 16.0865 5.93598 16.4934C6.09958 16.9144 6.31825 17.2715 6.67412 17.6272C7.02972 17.9832 7.38679 18.2024 7.80747 18.3659C8.21467 18.5241 8.67987 18.632 9.36108 18.6632C10.0438 18.6943 10.2618 18.7019 11.9998 18.7019C13.7381 18.7019 13.9555 18.6943 14.6382 18.6632C15.3195 18.632 15.7851 18.5241 16.1924 18.3659C16.6132 18.2024 16.9697 17.9832 17.3253 17.6272C17.6813 17.2715 17.9 16.9144 18.064 16.4936C18.2213 16.0865 18.3293 15.6213 18.3613 14.9402C18.392 14.2576 18.4 14.04 18.4 12.3018C18.4 10.5636 18.392 10.3455 18.3613 9.66284C18.3293 8.9815 18.2213 8.51643 18.064 8.10949C17.9 7.68855 17.6813 7.33148 17.3253 6.97574C16.9693 6.61974 16.6133 6.40107 16.192 6.23774C15.7839 6.07947 15.3186 5.9716 14.6373 5.9404C13.9546 5.90933 13.7373 5.90173 11.9986 5.90173H12.0006ZM11.4264 7.05506C11.5968 7.05479 11.7869 7.05506 12.0005 7.05506C13.7094 7.05506 13.9119 7.06119 14.5867 7.09186C15.2107 7.12039 15.5494 7.22466 15.775 7.31226C16.0737 7.42826 16.2866 7.56693 16.5105 7.79094C16.7345 8.01494 16.8731 8.22827 16.9894 8.52694C17.077 8.75228 17.1814 9.09095 17.2098 9.71496C17.2405 10.3896 17.2471 10.5923 17.2471 12.3003C17.2471 14.0083 17.2405 14.211 17.2098 14.8857C17.1813 15.5097 17.077 15.8484 16.9894 16.0737C16.8734 16.3724 16.7345 16.585 16.5105 16.8089C16.2865 17.0329 16.0738 17.1716 15.775 17.2876C15.5497 17.3756 15.2107 17.4796 14.5867 17.5081C13.912 17.5388 13.7094 17.5454 12.0005 17.5454C10.2916 17.5454 10.0891 17.5388 9.41439 17.5081C8.79038 17.4793 8.45171 17.375 8.22598 17.2874C7.92731 17.1714 7.71397 17.0328 7.48997 16.8088C7.26597 16.5848 7.1273 16.372 7.01103 16.0732C6.92343 15.8478 6.81903 15.5091 6.79063 14.8851C6.75996 14.2105 6.75383 14.0078 6.75383 12.2987C6.75383 10.5896 6.75996 10.388 6.79063 9.71336C6.81916 9.08935 6.92343 8.75068 7.01103 8.52508C7.12703 8.22641 7.26597 8.01307 7.48997 7.78907C7.71397 7.56507 7.92731 7.4264 8.22598 7.31013C8.45158 7.22213 8.79038 7.11813 9.41439 7.08946C10.0048 7.06279 10.2336 7.05479 11.4264 7.05346V7.05506ZM15.4169 8.11774C14.9928 8.11774 14.6488 8.46134 14.6488 8.88548C14.6488 9.30949 14.9928 9.65349 15.4169 9.65349C15.8409 9.65349 16.1849 9.30949 16.1849 8.88548C16.1849 8.46148 15.8409 8.11774 15.4169 8.11774ZM12.0006 9.01508C10.1855 9.01508 8.71389 10.4867 8.71389 12.3018C8.71389 14.1169 10.1855 15.5878 12.0006 15.5878C13.8157 15.5878 15.2868 14.1169 15.2868 12.3018C15.2868 10.4867 13.8157 9.01508 12.0006 9.01508ZM12.0006 10.1684C13.1787 10.1684 14.1339 11.1235 14.1339 12.3018C14.1339 13.4799 13.1787 14.4351 12.0006 14.4351C10.8223 14.4351 9.86721 13.4799 9.86721 12.3018C9.86721 11.1235 10.8223 10.1684 12.0006 10.1684Z" fill="white"/>
</svg>
