<svg width="12" height="16" viewBox="0 0 12 16" fill="none" xmlns="http://www.w3.org/2000/svg">
<g clip-path="url(#clip0_1900_10037)">
<rect width="11.6307" height="16" fill="white"/>
<path d="M5.81149 13.4454C5.70294 13.3291 5.59438 13.2205 5.49358 13.1081C4.24861 11.7892 3.16931 10.3232 2.27963 8.74269C1.79082 7.8813 1.42788 6.95436 1.20185 5.99008C0.902365 4.8134 1.05886 3.56699 1.63994 2.50087C2.00781 1.78628 2.55642 1.1805 3.23117 0.74382C3.90591 0.307141 4.68325 0.0547925 5.48583 0.011891C6.66194 -0.0749787 7.82813 0.280292 8.75605 1.00814C9.68397 1.73599 10.3068 2.78399 10.5025 3.94695C10.6352 4.80627 10.5675 5.68461 10.3048 6.51346C9.94595 7.66016 9.42366 8.74914 8.75406 9.74681C7.92138 11.0456 6.96024 12.2574 5.88515 13.364C5.86231 13.3926 5.83771 13.4198 5.81149 13.4454V13.4454ZM2.89606 4.68356C2.89452 5.26177 3.06473 5.82741 3.38509 6.30876C3.70545 6.79011 4.16154 7.16548 4.69551 7.38728C5.22949 7.60908 5.8173 7.66732 6.38442 7.55461C6.95154 7.44189 7.47241 7.16331 7.881 6.75418C8.28958 6.34506 8.56747 5.82381 8.67942 5.25654C8.79138 4.68928 8.73236 4.10154 8.50985 3.56786C8.28733 3.03418 7.91135 2.5786 7.42958 2.25888C6.94781 1.93916 6.38194 1.76971 5.80374 1.77201C5.03316 1.77609 4.29536 2.08427 3.75084 2.62953C3.20631 3.17478 2.89911 3.91298 2.89606 4.68356Z" fill="#FBBE07"/>
<path d="M3.93893 12.3948L3.14029 12.5499C2.77073 12.6212 2.41223 12.7412 2.07414 12.9066C1.94096 12.9743 1.81715 13.059 1.70583 13.1586C1.65863 13.1892 1.61983 13.2311 1.59297 13.2806C1.5661 13.33 1.55203 13.3853 1.55203 13.4416C1.55203 13.4979 1.5661 13.5532 1.59297 13.6027C1.61983 13.6521 1.65863 13.694 1.70583 13.7246C1.84467 13.8363 1.99871 13.9277 2.16331 13.996C2.6476 14.1926 3.15617 14.323 3.6753 14.3837C4.83952 14.5405 6.01754 14.5678 7.18778 14.4651C7.89592 14.4292 8.59608 14.2988 9.26968 14.0774C9.43253 14.0169 9.59063 13.9444 9.74266 13.8603C9.82504 13.8126 9.8985 13.751 9.95977 13.6781C9.9914 13.6494 10.0167 13.6144 10.034 13.5753C10.0513 13.5363 10.0602 13.494 10.0602 13.4513C10.0602 13.4086 10.0513 13.3663 10.034 13.3273C10.0167 13.2882 9.9914 13.2532 9.95977 13.2245C9.8455 13.1102 9.71484 13.0135 9.57208 12.9376C9.12881 12.7222 8.65573 12.5745 8.16864 12.4995C8.02132 12.4685 7.87787 12.4452 7.70729 12.4181C7.7985 12.3194 7.8827 12.2145 7.95929 12.1041C8.07172 11.8986 8.21904 11.8908 8.42839 11.9374C9.12122 12.0628 9.79579 12.2738 10.4366 12.5654C10.7212 12.6893 10.9833 12.8596 11.212 13.0694C11.2988 13.1516 11.3767 13.2425 11.4446 13.3408C11.5588 13.4907 11.6206 13.6739 11.6206 13.8623C11.6206 14.0506 11.5588 14.2338 11.4446 14.3837C11.2846 14.6068 11.0799 14.7942 10.8437 14.9342C10.2747 15.2735 9.65392 15.5171 9.00605 15.6553C7.71924 15.9513 6.39719 16.0649 5.07874 15.9926C4.103 15.9588 3.13473 15.8092 2.19433 15.5468C1.64274 15.4043 1.11867 15.171 0.643562 14.8567C0.441031 14.7245 0.267024 14.5532 0.13181 14.3527C0.0324505 14.2084 -0.020752 14.0374 -0.020752 13.8623C-0.020752 13.6871 0.0324505 13.5161 0.13181 13.3718C0.310101 13.1104 0.547959 12.8952 0.825777 12.7438C1.4063 12.4126 2.03574 12.1757 2.69057 12.042C2.93481 11.9839 3.17906 11.9451 3.42331 11.8947C3.44678 11.8874 3.47201 11.888 3.49512 11.8964C3.51822 11.9048 3.53794 11.9206 3.55124 11.9412C3.68693 12.0847 3.811 12.232 3.93893 12.3948Z" fill="#FBBE07"/>
</g>
<defs>
<clipPath id="clip0_1900_10037">
<rect width="11.6307" height="16" fill="white"/>
</clipPath>
</defs>
</svg>
