<svg width="112" height="49" viewBox="0 0 112 49" fill="none" xmlns="http://www.w3.org/2000/svg">
<path d="M52.8338 38.7201H51.7847V33.1083C51.7847 32.9993 51.7847 32.8008 51.7847 32.8008H52.8185L52.8338 38.7201Z" fill="#242729"/>
<path d="M56.1588 34.2097V38.7201H55.2559V32.8008H56.5056L59.7772 37.0887V32.8008H60.6736V38.7201H59.6223L56.1588 34.2097Z" fill="#242729"/>
<path d="M66.8077 34.044C66.2317 33.7803 65.6068 33.6406 64.9734 33.6339C64.0726 33.6339 63.4641 33.9611 63.4641 34.4409C63.4641 35.0036 64.1642 35.0734 65.3813 35.1563C67.0912 35.2719 67.7477 35.7866 67.7477 36.9469C67.7477 37.8477 66.8753 38.6787 65.2766 38.6787C64.5179 38.6696 63.7676 38.5179 63.065 38.2316L62.5546 37.9808L62.9298 37.1716C62.9298 37.1716 63.2133 37.3526 63.4118 37.453C63.993 37.7197 64.6262 37.8538 65.2657 37.8455C66.2951 37.8455 66.764 37.4573 66.764 36.9448C66.764 36.3712 66.2144 36.2185 65.0432 36.1487C63.1828 36.0418 62.4805 35.5511 62.4805 34.5783C62.4805 33.538 63.451 32.8008 64.9952 32.8008C65.7307 32.8126 66.4576 32.9605 67.1392 33.237C67.2199 33.2741 67.5252 33.3984 67.5252 33.3984L67.1741 34.2403C67.1741 34.2403 66.9342 34.1116 66.8077 34.044Z" fill="#242729"/>
<path d="M74.8817 33.0942V36.5948C74.8817 38.1106 74.1554 38.7278 72.2644 38.7278C70.3734 38.7278 69.6362 38.1106 69.6362 36.5948V32.791H70.657V36.5839C70.657 37.4323 70.8991 37.8554 72.2666 37.8554C73.6341 37.8554 73.8675 37.4323 73.8675 36.5948V32.791H74.8882C74.8882 32.791 74.8817 32.996 74.8817 33.0942Z" fill="#242729"/>
<path d="M78.3132 36.337V38.686H77.2227V32.7754H81.4473C83.0286 32.7754 83.4779 33.8812 83.4779 34.5486C83.4779 35.3185 83.0286 36.1037 81.7941 36.2694L83.3907 38.6686H82.202L80.6185 36.337H78.3132ZM78.3132 33.7023V35.4123H81.3448C81.8334 35.4123 82.359 35.2312 82.3459 34.5638C82.3329 33.999 81.9359 33.7023 81.3448 33.7023H78.3132Z" fill="#242729"/>
<path d="M88.2179 32.791L90.5778 38.6798H89.4633L88.8918 37.2731H86.0565L85.4021 38.7998H84.3901L86.8918 32.8063L88.2179 32.791ZM87.5025 33.8663L86.4512 36.3614H88.5036L87.5025 33.8663Z" fill="#242729"/>
<path d="M96.6107 38.6819L92.9487 34.1017V38.6819H91.9912V32.8105H93.3173L96.783 37.1726V32.8105H97.7426V38.6776L96.6107 38.6819Z" fill="#242729"/>
<path d="M104.551 37.7844C103.956 38.3591 103.166 38.6885 102.339 38.707C100.396 38.707 99.3184 37.3264 99.3184 35.7822C99.3184 34.0373 100.559 32.8203 102.339 32.8203C103.065 32.8305 103.777 33.024 104.409 33.383L104.845 33.6295L104.35 34.4212C104.35 34.4212 104.075 34.262 103.942 34.1638C103.49 33.8417 102.949 33.6673 102.394 33.6644C101.212 33.6644 100.381 34.5368 100.381 35.7582C100.381 36.9512 101.201 37.8651 102.289 37.8651C103.033 37.8651 103.796 37.3787 104.143 37.0363C104.254 36.9272 104.507 36.72 104.507 36.72L105.007 37.3961C105.007 37.3961 104.701 37.6426 104.551 37.7844Z" fill="#242729"/>
<path d="M107.902 33.6885V35.2414H110.366V36.1291H107.902V37.8194H111.673V38.6918H106.875V32.8008H111.673V33.6885H107.902Z" fill="#242729"/>
<path d="M51.611 12.0039L59.2033 12.0301C62.3789 12.041 63.8184 13.8949 63.8118 15.655C63.8118 16.9832 63.1968 17.8186 61.694 18.6234C63.4803 19.5242 64.1717 20.4795 64.1651 22.0105C64.1651 24.9833 61.3516 25.8688 59.3668 25.8623L51.5718 25.8361C51.5718 25.8361 51.5718 25.3737 51.5718 25.1142L51.6132 12.7258C51.5958 12.4663 51.611 12.0039 51.611 12.0039ZM54.0102 14.0912V17.6136L58.9481 17.631C60.0757 17.631 61.26 17.2362 61.2644 15.8862C61.2687 14.5361 60.2894 14.1217 59.0833 14.1173L54.0102 14.0912ZM53.9971 19.6899L53.984 23.7619L58.8914 23.7772C59.4999 23.7772 61.5195 23.8732 61.5283 21.8513C61.5283 20.4358 60.5228 19.7117 59.0506 19.7074L53.9971 19.6899Z" fill="#242729"/>
<path d="M71.1386 12.4412L71.0971 25.0913C71.0971 25.3268 71.0971 25.7979 71.0971 25.7979H68.6304C68.6304 25.7979 68.6304 25.3617 68.6304 25.0934L68.6784 12.0508H71.1451C71.1451 12.0508 71.1408 12.1773 71.1386 12.4412Z" fill="#242729"/>
<path d="M80.6484 12.0373L85.5928 21.2348L90.7793 12.0352H93.8742L93.8262 25.7976H91.3704L91.4053 15.2348L85.4314 25.8041L79.5273 15.0973L79.4946 25.7474H77.355L77.403 12.0439L80.6484 12.0373Z" fill="#242729"/>
<path d="M106.766 12.0352L112 25.7605H109.577L108.281 22.3275L101.778 22.3144L100.342 25.767H98.0698L103.741 12.0395L106.766 12.0352ZM105.134 14.4867L102.713 20.1726L107.4 20.1901L105.134 14.4867Z" fill="#242729"/>
<path d="M34.707 10.4036L34.864 7.98045L32.9513 6.23561L28.7462 10.3273H26.1289L23.0253 13.1321L22.8399 18.1834L19.2935 19.4048L15.7406 18.1878L15.5574 13.1364L12.4516 10.3294H9.83434L5.8234 6.23997H11.8976L13.7013 6.09821L19.287 10.0372L24.8879 6.08076L26.6458 6.23997H32.9447H30.4779L24.046 0H14.6392L8.32724 6.23779H5.80813L3.89753 7.88885L4.06329 10.3164L0 14.6283L0.0763363 29.4943L18.0547 46.6744L19.4724 44.7551L20.7461 48.7464L38.6939 29.4943L38.7703 14.6305L34.707 10.4036ZM10.0612 12.3665L14.2837 16.4015L11.7406 18.2205L6.02623 12.384L10.0612 12.3665ZM20.7243 34.8313L19.4157 33.7081L17.9915 35.8891L14.5323 31.1432L17.5858 28.2795H20.9511L24.0046 31.1432L20.7243 34.8313ZM22.757 28.3667L19.2826 25.3132L15.8104 28.3558L11.2106 23.7102C11.2106 23.7102 14.9881 20.0133 15.0558 20.0286C16.4974 20.3557 18.5694 21.7167 19.2848 22.2096C20.0242 21.7014 22.2031 20.2707 23.6469 20.0046C23.6687 20.0046 27.3547 23.7123 27.3547 23.7123L22.757 28.3667ZM26.8094 18.2205L24.2663 16.4015L28.491 12.3753H32.5259L26.8094 18.2205Z" fill="#FBBE07"/>
</svg>
