<svg width="24" height="24" viewBox="0 0 24 24" fill="none" xmlns="http://www.w3.org/2000/svg">
<path opacity="0.1" fill-rule="evenodd" clip-rule="evenodd" d="M0 12C0 5.37258 5.37258 0 12 0C18.6274 0 24 5.37258 24 12C24 18.6274 18.6274 24 12 24C5.37258 24 0 18.6274 0 12Z" fill="white"/>
<g clip-path="url(#clip0_870_10639)">
<path opacity="0.8" fill-rule="evenodd" clip-rule="evenodd" d="M14.8775 13.875C14.1925 14.2488 13.25 14.3971 12.6275 14.4529L13.15 14.8955L15.0575 16.5348C15.755 17.1492 14.62 18.1096 13.915 17.5166C13.4375 17.0998 12.7375 16.4982 12.0075 15.8709L10.1 17.5145C9.39499 18.1053 8.25999 17.1363 8.96499 16.5326C9.44999 16.1158 10.1425 15.5143 10.8725 14.8934L11.3875 14.4508C10.7725 14.3949 9.81499 14.2553 9.12249 13.8729C8.30749 13.4217 7.94999 13.1574 8.26499 12.6053C8.44999 12.2916 8.95749 12.0273 9.62999 12.4828C9.62999 12.4828 10.5375 13.1037 12.0025 13.1037C13.4675 13.1037 14.375 12.4828 14.375 12.4828C15.0475 12.0295 15.5525 12.2916 15.74 12.6053C16.05 13.1574 15.6925 13.4217 14.8775 13.875ZM8.75749 9.48574C8.75749 7.94531 10.215 6.69922 12 6.69922C13.785 6.69922 15.2425 7.94531 15.2425 9.48574C15.2425 11.0197 13.785 12.2658 12 12.2658C10.215 12.2658 8.75749 11.0197 8.75749 9.48574V9.48574ZM10.4075 9.48574C10.4075 10.2398 11.1225 10.8543 12 10.8543C12.8775 10.8543 13.5925 10.2398 13.5925 9.48574C13.5925 8.7252 12.8775 8.11074 12 8.11074C11.1225 8.11074 10.4075 8.7252 10.4075 9.48574Z" fill="white"/>
</g>
<defs>
<clipPath id="clip0_870_10639">
<rect width="8" height="11" fill="white" transform="translate(8 6.69922)"/>
</clipPath>
</defs>
</svg>
