<svg width="25" height="25" viewBox="0 0 25 25" fill="none" xmlns="http://www.w3.org/2000/svg">
<path opacity="0.1" fill-rule="evenodd" clip-rule="evenodd" d="M0.0239258 12.634C0.0239258 6.00662 5.39651 0.634033 12.0239 0.634033C18.6513 0.634033 24.0239 6.00662 24.0239 12.634C24.0239 19.2615 18.6513 24.634 12.0239 24.634C5.39651 24.634 0.0239258 19.2615 0.0239258 12.634Z" fill="white"/>
<path fill-rule="evenodd" clip-rule="evenodd" d="M17.0247 8.50873C17.5755 8.65987 18.0092 9.10518 18.1564 9.67068C18.4239 10.6956 18.4239 12.8341 18.4239 12.8341C18.4239 12.8341 18.4239 14.9725 18.1564 15.9975C18.0092 16.563 17.5755 17.0083 17.0247 17.1595C16.0266 17.4341 12.0239 17.4341 12.0239 17.4341C12.0239 17.4341 8.02121 17.4341 7.02303 17.1595C6.47227 17.0083 6.03852 16.563 5.89132 15.9975C5.6239 14.9725 5.6239 12.8341 5.6239 12.8341C5.6239 12.8341 5.6239 10.6956 5.89132 9.67068C6.03852 9.10518 6.47227 8.65987 7.02303 8.50873C8.02121 8.23407 12.0239 8.23407 12.0239 8.23407C12.0239 8.23407 16.0266 8.23407 17.0247 8.50873ZM10.8239 11.034V15.034L14.0239 13.0341L10.8239 11.034Z" fill="white"/>
</svg>
